<?xml version="1.0" encoding="utf-8"?>
<!-- Generator: Adobe Illustrator 27.1.0, SVG Export Plug-In . SVG Version: 6.00 Build 0)  -->
<svg version="1.1" id="Capa_1" shape-rendering="crispEdges"
	 xmlns="http://www.w3.org/2000/svg" xmlns:xlink="http://www.w3.org/1999/xlink" x="0px" y="0px" viewBox="0 0 160 210"
	 style="enable-background:new 0 0 160 210;" xml:space="preserve">
<style type="text/css">
	.st0{fill:none;}
	.st1{fill:#1D2B53;}
</style>
<g>
	<rect x="100" y="130" class="st0" width="10" height="10"/>
	<rect x="100" y="110" class="st0" width="10" height="10"/>
	<rect x="180" y="110" class="st0" width="10" height="10"/>
	<rect x="80" y="130" class="st0" width="10" height="10"/>
	<rect x="280" y="110" class="st0" width="10" height="10"/>
	<rect x="120" y="110" class="st0" width="10" height="10"/>
	<rect x="120" y="130" class="st0" width="10" height="10"/>
	<rect x="160" y="110" class="st0" width="10" height="10"/>
	<rect x="160" y="130" class="st0" width="10" height="10"/>
	<rect x="200" y="110" class="st0" width="10" height="10"/>
	<rect x="140" y="150" class="st0" width="10" height="10"/>
	<rect x="260" y="110" class="st0" width="10" height="10"/>
	<rect x="220" y="110" class="st0" width="10" height="10"/>
	<rect x="140" y="130" class="st0" width="10" height="10"/>
	<rect x="240" y="110" class="st0" width="10" height="10"/>
	<rect x="140" y="110" class="st0" width="10" height="10"/>
	<rect x="60" y="150" class="st0" width="10" height="10"/>
	<rect x="30" y="160" class="st0" width="10" height="10"/>
	<rect x="80" y="150" class="st0" width="10" height="10"/>
	<rect x="100" y="150" class="st0" width="10" height="10"/>
	<rect x="120" y="150" class="st0" width="10" height="10"/>
	<rect x="50" y="160" class="st0" width="10" height="10"/>
	<rect x="40" y="150" class="st0" width="10" height="10"/>
	<rect x="20" y="110" class="st0" width="10" height="10"/>
	<rect x="60" y="110" class="st0" width="10" height="10"/>
	<rect x="40" y="110" class="st0" width="10" height="10"/>
	<rect x="20" y="150" class="st0" width="10" height="10"/>
	<rect x="60" y="130" class="st0" width="10" height="10"/>
	<rect x="20" y="130" class="st0" width="10" height="10"/>
	<rect x="40" y="130" class="st0" width="10" height="10"/>
	<rect x="80" y="110" class="st0" width="10" height="10"/>
	<rect x="180" y="130" class="st0" width="10" height="10"/>
	<rect x="230" y="120" class="st0" width="10" height="10"/>
	<rect x="30" y="120" class="st0" width="10" height="10"/>
	<rect x="30" y="140" class="st0" width="10" height="10"/>
	<rect x="250" y="120" class="st0" width="10" height="10"/>
	<rect x="70" y="140" class="st0" width="10" height="10"/>
	<rect x="50" y="120" class="st0" width="10" height="10"/>
	<rect x="270" y="120" class="st0" width="10" height="10"/>
	<rect x="50" y="140" class="st0" width="10" height="10"/>
	<rect x="130" y="120" class="st0" width="10" height="10"/>
	<rect x="150" y="120" class="st0" width="10" height="10"/>
	<rect x="190" y="120" class="st0" width="10" height="10"/>
	<rect x="90" y="120" class="st0" width="10" height="10"/>
	<rect x="110" y="120" class="st0" width="10" height="10"/>
	<rect x="210" y="120" class="st0" width="10" height="10"/>
	<rect x="280" y="130" class="st0" width="10" height="10"/>
	<rect x="70" y="120" class="st0" width="10" height="10"/>
	<rect x="200" y="130" class="st0" width="10" height="10"/>
	<rect x="230" y="140" class="st0" width="10" height="10"/>
	<rect x="210" y="140" class="st0" width="10" height="10"/>
	<rect x="270" y="140" class="st0" width="10" height="10"/>
	<rect x="190" y="140" class="st0" width="10" height="10"/>
	<rect x="250" y="140" class="st0" width="10" height="10"/>
	<rect x="110" y="140" class="st0" width="10" height="10"/>
	<rect x="260" y="130" class="st0" width="10" height="10"/>
	<rect x="130" y="140" class="st0" width="10" height="10"/>
	<rect x="90" y="140" class="st0" width="10" height="10"/>
	<rect x="240" y="130" class="st0" width="10" height="10"/>
	<rect x="150" y="140" class="st0" width="10" height="10"/>
	<rect x="170" y="140" class="st0" width="10" height="10"/>
	<rect x="220" y="130" class="st0" width="10" height="10"/>
	<rect x="170" y="120" class="st0" width="10" height="10"/>
	<rect x="170" y="100" class="st0" width="10" height="10"/>
	<rect x="190" y="100" class="st0" width="10" height="10"/>
	<rect x="230" y="160" class="st0" width="10" height="10"/>
	<rect x="150" y="100" class="st0" width="10" height="10"/>
	<rect x="250" y="160" class="st0" width="10" height="10"/>
	<rect x="130" y="100" class="st0" width="10" height="10"/>
	<rect x="270" y="160" class="st0" width="10" height="10"/>
	<rect x="190" y="160" class="st0" width="10" height="10"/>
	<rect x="270" y="100" class="st0" width="10" height="10"/>
	<rect x="210" y="160" class="st0" width="10" height="10"/>
	<rect x="250" y="100" class="st0" width="10" height="10"/>
	<rect x="210" y="100" class="st0" width="10" height="10"/>
	<rect x="230" y="100" class="st0" width="10" height="10"/>
	<rect x="10" y="160" class="st0" width="10" height="10"/>
	<rect x="170" y="160" class="st0" width="10" height="10"/>
	<rect x="300" y="150" class="st0" width="10" height="10"/>
	<rect x="10" y="140" class="st0" width="10" height="10"/>
	<rect x="300" y="130" class="st0" width="10" height="10"/>
	<rect x="10" y="120" class="st0" width="10" height="10"/>
	<rect x="300" y="110" class="st0" width="10" height="10"/>
	<rect x="10" y="100" class="st0" width="10" height="10"/>
	<rect x="110" y="100" class="st0" width="10" height="10"/>
	<rect x="290" y="160" class="st0" width="10" height="10"/>
	<rect x="90" y="100" class="st0" width="10" height="10"/>
	<rect x="70" y="100" class="st0" width="10" height="10"/>
	<rect x="50" y="100" class="st0" width="10" height="10"/>
	<rect x="30" y="100" class="st0" width="10" height="10"/>
	<rect x="220" y="150" class="st0" width="10" height="10"/>
	<rect x="110" y="160" class="st0" width="10" height="10"/>
	<rect x="240" y="150" class="st0" width="10" height="10"/>
	<rect x="130" y="160" class="st0" width="10" height="10"/>
	<rect x="280" y="150" class="st0" width="10" height="10"/>
	<rect x="260" y="150" class="st0" width="10" height="10"/>
	<rect x="160" y="150" class="st0" width="10" height="10"/>
	<rect x="90" y="160" class="st0" width="10" height="10"/>
	<rect x="290" y="100" class="st0" width="10" height="10"/>
	<rect x="70" y="160" class="st0" width="10" height="10"/>
	<rect x="200" y="150" class="st0" width="10" height="10"/>
	<rect x="180" y="150" class="st0" width="10" height="10"/>
	<rect x="290" y="140" class="st0" width="10" height="10"/>
	<rect x="290" y="120" class="st0" width="10" height="10"/>
	<rect x="150" y="160" class="st0" width="10" height="10"/>
	<rect class="st1" width="10" height="10"/>
	<rect x="20" class="st1" width="10" height="10"/>
	<rect x="40" class="st1" width="10" height="10"/>
	<rect x="60" class="st1" width="10" height="10"/>
	<rect x="80" class="st1" width="10" height="10"/>
	<rect x="100" class="st1" width="10" height="10"/>
	<rect x="120" class="st1" width="10" height="10"/>
	<rect x="140" class="st1" width="10" height="10"/>
	<rect x="160" class="st1" width="10" height="10"/>
	<rect x="180" class="st1" width="10" height="10"/>
	<rect x="200" class="st1" width="10" height="10"/>
	<rect x="220" class="st1" width="10" height="10"/>
	<rect x="240" class="st1" width="10" height="10"/>
	<rect x="260" class="st1" width="10" height="10"/>
	<rect x="280" class="st1" width="10" height="10"/>
	<rect x="300" class="st1" width="10" height="10"/>
	<rect x="10" y="40" class="st1" width="10" height="10"/>
	<rect x="30" y="40" class="st1" width="10" height="10"/>
	<rect x="50" y="40" class="st1" width="10" height="10"/>
	<rect x="70" y="40" class="st1" width="10" height="10"/>
	<rect x="90" y="40" class="st1" width="10" height="10"/>
	<rect x="110" y="40" class="st1" width="10" height="10"/>
	<rect x="130" y="40" class="st1" width="10" height="10"/>
	<rect x="150" y="40" class="st1" width="10" height="10"/>
	<rect x="170" y="40" class="st1" width="10" height="10"/>
	<rect x="190" y="40" class="st1" width="10" height="10"/>
	<rect x="210" y="40" class="st1" width="10" height="10"/>
	<rect x="230" y="40" class="st1" width="10" height="10"/>
	<rect x="250" y="40" class="st1" width="10" height="10"/>
	<rect x="270" y="40" class="st1" width="10" height="10"/>
	<rect x="290" y="40" class="st1" width="10" height="10"/>
	<rect x="310" y="40" class="st1" width="10" height="10"/>
	<rect y="70" class="st1" width="10" height="10"/>
	<rect x="20" y="70" class="st1" width="10" height="10"/>
	<rect x="40" y="70" class="st1" width="10" height="10"/>
	<rect x="60" y="70" class="st1" width="10" height="10"/>
	<rect x="80" y="70" class="st1" width="10" height="10"/>
	<rect x="100" y="70" class="st1" width="10" height="10"/>
	<rect x="120" y="70" class="st1" width="10" height="10"/>
	<rect x="140" y="70" class="st1" width="10" height="10"/>
	<rect x="160" y="70" class="st1" width="10" height="10"/>
	<rect x="180" y="70" class="st1" width="10" height="10"/>
	<rect x="200" y="70" class="st1" width="10" height="10"/>
	<rect x="220" y="70" class="st1" width="10" height="10"/>
	<rect x="240" y="70" class="st1" width="10" height="10"/>
	<rect x="260" y="70" class="st1" width="10" height="10"/>
	<rect x="280" y="70" class="st1" width="10" height="10"/>
	<rect x="300" y="70" class="st1" width="10" height="10"/>
	<rect x="10" y="90" class="st1" width="10" height="10"/>
	<rect x="30" y="90" class="st1" width="10" height="10"/>
	<rect x="50" y="90" class="st1" width="10" height="10"/>
	<rect x="70" y="90" class="st1" width="10" height="10"/>
	<rect x="90" y="90" class="st1" width="10" height="10"/>
	<rect x="110" y="90" class="st1" width="10" height="10"/>
	<rect x="130" y="90" class="st1" width="10" height="10"/>
	<rect x="150" y="90" class="st1" width="10" height="10"/>
	<rect x="170" y="90" class="st1" width="10" height="10"/>
	<rect x="190" y="90" class="st1" width="10" height="10"/>
	<rect x="210" y="90" class="st1" width="10" height="10"/>
	<rect x="230" y="90" class="st1" width="10" height="10"/>
	<rect x="250" y="90" class="st1" width="10" height="10"/>
	<rect x="270" y="90" class="st1" width="10" height="10"/>
	<rect x="290" y="90" class="st1" width="10" height="10"/>
	<rect x="310" y="90" class="st1" width="10" height="10"/>
	<rect y="100" class="st1" width="10" height="10"/>
	<rect x="20" y="100" class="st1" width="10" height="10"/>
	<rect x="40" y="100" class="st1" width="10" height="10"/>
	<rect x="60" y="100" class="st1" width="10" height="10"/>
	<rect x="80" y="100" class="st1" width="10" height="10"/>
	<rect x="100" y="100" class="st1" width="10" height="10"/>
	<rect x="120" y="100" class="st1" width="10" height="10"/>
	<rect x="140" y="100" class="st1" width="10" height="10"/>
	<rect x="160" y="100" class="st1" width="10" height="10"/>
	<rect x="180" y="100" class="st1" width="10" height="10"/>
	<rect x="200" y="100" class="st1" width="10" height="10"/>
	<rect x="220" y="100" class="st1" width="10" height="10"/>
	<rect x="240" y="100" class="st1" width="10" height="10"/>
	<rect x="260" y="100" class="st1" width="10" height="10"/>
	<rect x="280" y="100" class="st1" width="10" height="10"/>
	<rect x="300" y="100" class="st1" width="10" height="10"/>
	<rect x="10" y="110" class="st1" width="10" height="10"/>
	<rect x="30" y="110" class="st1" width="10" height="10"/>
	<rect x="50" y="110" class="st1" width="10" height="10"/>
	<rect x="70" y="110" class="st1" width="10" height="10"/>
	<rect x="90" y="110" class="st1" width="10" height="10"/>
	<rect x="110" y="110" class="st1" width="10" height="10"/>
	<rect x="130" y="110" class="st1" width="10" height="10"/>
	<rect x="150" y="110" class="st1" width="10" height="10"/>
	<rect x="170" y="110" class="st1" width="10" height="10"/>
	<rect x="190" y="110" class="st1" width="10" height="10"/>
	<rect x="210" y="110" class="st1" width="10" height="10"/>
	<rect x="230" y="110" class="st1" width="10" height="10"/>
	<rect x="250" y="110" class="st1" width="10" height="10"/>
	<rect x="270" y="110" class="st1" width="10" height="10"/>
	<rect x="290" y="110" class="st1" width="10" height="10"/>
	<rect x="310" y="110" class="st1" width="10" height="10"/>
	<rect y="120" class="st1" width="10" height="10"/>
	<rect x="20" y="120" class="st1" width="10" height="10"/>
	<rect x="40" y="120" class="st1" width="10" height="10"/>
	<rect x="60" y="120" class="st1" width="10" height="10"/>
	<rect x="80" y="120" class="st1" width="10" height="10"/>
	<rect x="100" y="120" class="st1" width="10" height="10"/>
	<rect x="120" y="120" class="st1" width="10" height="10"/>
	<rect x="140" y="120" class="st1" width="10" height="10"/>
	<rect x="160" y="120" class="st1" width="10" height="10"/>
	<rect x="180" y="120" class="st1" width="10" height="10"/>
	<rect x="200" y="120" class="st1" width="10" height="10"/>
	<rect x="220" y="120" class="st1" width="10" height="10"/>
	<rect x="240" y="120" class="st1" width="10" height="10"/>
	<rect x="260" y="120" class="st1" width="10" height="10"/>
	<rect x="280" y="120" class="st1" width="10" height="10"/>
	<rect x="300" y="120" class="st1" width="10" height="10"/>
	<rect x="10" y="130" class="st1" width="10" height="10"/>
	<rect x="30" y="130" class="st1" width="10" height="10"/>
	<rect x="50" y="130" class="st1" width="10" height="10"/>
	<rect x="70" y="130" class="st1" width="10" height="10"/>
	<rect x="90" y="130" class="st1" width="10" height="10"/>
	<rect x="110" y="130" class="st1" width="10" height="10"/>
	<rect x="130" y="130" class="st1" width="10" height="10"/>
	<rect x="150" y="130" class="st1" width="10" height="10"/>
	<rect x="170" y="130" class="st1" width="10" height="10"/>
	<rect x="190" y="130" class="st1" width="10" height="10"/>
	<rect x="210" y="130" class="st1" width="10" height="10"/>
	<rect x="230" y="130" class="st1" width="10" height="10"/>
	<rect x="250" y="130" class="st1" width="10" height="10"/>
	<rect x="270" y="130" class="st1" width="10" height="10"/>
	<rect x="290" y="130" class="st1" width="10" height="10"/>
	<rect x="310" y="130" class="st1" width="10" height="10"/>
	<rect y="140" class="st1" width="10" height="10"/>
	<rect x="20" y="140" class="st1" width="10" height="10"/>
	<rect x="40" y="140" class="st1" width="10" height="10"/>
	<rect x="60" y="140" class="st1" width="10" height="10"/>
	<rect x="80" y="140" class="st1" width="10" height="10"/>
	<rect x="100" y="140" class="st1" width="10" height="10"/>
	<rect x="120" y="140" class="st1" width="10" height="10"/>
	<rect x="140" y="140" class="st1" width="10" height="10"/>
	<rect x="160" y="140" class="st1" width="10" height="10"/>
	<rect x="180" y="140" class="st1" width="10" height="10"/>
	<rect x="200" y="140" class="st1" width="10" height="10"/>
	<rect x="220" y="140" class="st1" width="10" height="10"/>
	<rect x="240" y="140" class="st1" width="10" height="10"/>
	<rect x="260" y="140" class="st1" width="10" height="10"/>
	<rect x="280" y="140" class="st1" width="10" height="10"/>
	<rect x="300" y="140" class="st1" width="10" height="10"/>
	<rect x="10" y="150" class="st1" width="10" height="10"/>
	<rect x="30" y="150" class="st1" width="10" height="10"/>
	<rect x="50" y="150" class="st1" width="10" height="10"/>
	<rect x="70" y="150" class="st1" width="10" height="10"/>
	<rect x="90" y="150" class="st1" width="10" height="10"/>
	<rect x="110" y="150" class="st1" width="10" height="10"/>
	<rect x="130" y="150" class="st1" width="10" height="10"/>
	<rect x="150" y="150" class="st1" width="10" height="10"/>
	<rect x="170" y="150" class="st1" width="10" height="10"/>
	<rect x="190" y="150" class="st1" width="10" height="10"/>
	<rect x="210" y="150" class="st1" width="10" height="10"/>
	<rect x="230" y="150" class="st1" width="10" height="10"/>
	<rect x="250" y="150" class="st1" width="10" height="10"/>
	<rect x="270" y="150" class="st1" width="10" height="10"/>
	<rect x="290" y="150" class="st1" width="10" height="10"/>
	<rect x="310" y="150" class="st1" width="10" height="10"/>
	<polygon class="st1" points="300,170 290,170 290,160 280,160 280,170 270,170 270,160 260,160 260,170 250,170 250,160 240,160 
		240,170 230,170 230,160 220,160 220,170 210,170 210,160 200,160 200,170 190,170 190,160 180,160 180,170 170,170 170,160 
		160,160 160,170 150,170 150,160 140,160 140,170 130,170 130,160 120,160 120,170 110,170 110,160 100,160 100,170 90,170 90,160 
		80,160 80,170 70,170 70,160 60,160 60,170 50,170 50,160 40,160 40,170 30,170 30,160 20,160 20,170 10,170 10,160 0,160 0,170 
		0,180 0,190 0,200 0,210 10,210 20,210 30,210 40,210 50,210 60,210 70,210 80,210 90,210 100,210 110,210 120,210 130,210 
		140,210 150,210 160,210 170,210 180,210 190,210 200,210 210,210 220,210 230,210 240,210 250,210 260,210 270,210 280,210 
		290,210 300,210 310,210 320,210 320,200 320,190 320,180 320,170 310,170 310,160 300,160 	"/>
</g>
</svg>
