<?xml version="1.0" encoding="UTF-8"?>
<svg id="Capa_2" data-name="Capa 2" xmlns="http://www.w3.org/2000/svg" viewBox="0 0 565.77 221.18">
  <defs>
    <style>
      .cls-1 {
        stroke-miterlimit: 10;
        stroke-width: 2px;
      }

      .cls-1, .cls-2 {
        stroke: #1e2c52;
      }

      .cls-1, .cls-3 {
        fill: #5cb130;
      }

      .cls-4 {
        fill: #1d2c53;
      }

      .cls-2 {
        stroke-linecap: round;
        stroke-linejoin: round;
      }

      .cls-2, .cls-5 {
        fill: #1e2c52;
      }

      .cls-6 {
        fill: #e62253;
      }

      .cls-7 {
        fill: none;
      }

      .cls-8 {
        fill: #fef0e8;
      }
    </style>
  </defs>
  <g id="Capa_1-2" data-name="Capa 1">
    <path class="cls-8" d="m562.7,171c-2.3,4.5-5.6,8.1-9.4,11.2-6.3,5.2-13.4,9.2-21,12.3-10.9,4.5-22.3,7.4-33.9,9.4-14.7,2.5-29.7,3.4-44.6,3.6-31,0-61.3-4-91-12.5-27.6-7.6-54.9-17-81.4-27.7-.7-.3-1.4-.5-1.8-.7h-.7c-.5,2.2-.7,4.5-.9,6.7-.7,9.6-1.1,19.2-.7,28.8,0,3.1-.4,6.2-2.2,8.9-1.1,2-2.7,3.8-4.9,5.1-4.7,2.9-9.8,4.3-15.6,4.5-11,.5-21.4-1.3-31.7-5.1-3.6-1.1-7.1-2.5-10.7-3.8-12.7-4.9-25.7-10-38.6-14.7-16.3-6-33-11.8-50.2-15.8-17.8-4.5-35.9-6.7-54.2-7.6-10.1-.6-19.9-.6-29.7-.2-11.3.4-22.7,1.3-34.1,2.9-1.1.2-2.3.2-3.6.2-.9,0-1.1-.4-1.3-1.3,0-1.3.4-2.4,1.1-3.3,2.5-3.3,4.7-6.7,7.4-9.8,5.2-5.8,11-10.9,17-15.6,17.2-13.8,36.1-25.2,56-34.8,2.9-1.3,5.8-2.5,9.1-3.8-2.4-2.7-4.7-5.2-6.9-7.4-13.8-13.1-28.8-24.3-45.5-33.2-2.5-1.1-4.9-2.2-7.4-3.3q-2.5-1.1-1.8-4c1.8-.2,3.6-.4,5.6-.4,18.7-1.4,37.3-.5,56,2.2,16.1,2.4,32.2,5.8,48,9.8.5.2,1.1.4,1.8.4.7-1.6,1.4-3.3,1.8-4.9,4.5-13.2,7.2-26.8,7.6-40.6.4-10.2,5.5-17.4,14.9-21.6,6-2.9,12.5-3.8,19.2-4.2,2.1-.1,4.2-.2,6.3-.2,14.7,0,28.9,2.7,43,6.9,21.4,7.2,42.4,15.7,63.1,24.8,23.5,10.2,46.9,20,71.2,28.3,8.2,2.7,16.7,5.1,25.2,7.6.5,0,.9.2,1.8.2-.3-.7-.5-1.2-.7-1.6-2-4.7-4-9.3-6.2-13.8-2.9-6.3-2.2-12.9,2.7-18.3,3.3-3.6,7.3-6.3,11.8-8.5,8.9-4.2,18.3-6,28.3-5.1,3.5.2,6.9,1.1,10,3.1,2.4,1.7,4,4,4.2,7.1.9,5.8,1.8,11.6,2.7,17.2,0,.5,0,.9.2,1.6,1.8-.9,3.3-1.3,4.9-2.2,5.6-2.9,11.1-5.6,16.5-8.7,8.5-4.9,17.2-9.1,26.1-12.7,8.3-3.4,17-4.5,25.7-3.8,4.9.4,9.6,1.8,13.6,4.9,4.4,3.4,6.9,7.8,7.1,13.4,0,2.7-.2,5.6-.4,8.3-.7,10,0,19.9,1.1,29.9,1.6,15.6,4.7,31.2,9.6,46.4,3.1,9.2,6.7,18.1,10.9,26.8,3.2,6.4,2.7,12.7-.4,18.7Z"/>
    <g>
      <g>
        <path class="cls-1" d="m288.85,120.96c-15.35,0-16.63-20.77-4.97-20.77,7.53,0,7.6,9.63,1.88,9.63,0,0,.68-3.16-1.58-3.16-3.46,0-2.33,10.08,3.54,10.08,10.31,0,10.39-37.93.9-37.93-6.17,0-6.7,13.47-6.7,20.17-4.36.83-7.22,4.67-7.22,9.78,0,2.33.6,4.59,1.66,6.62-9.86-7.3-9.48-41.01,12.72-41.01,23.86,0,24.16,46.58-.23,46.58Z"/>
        <path class="cls-1" d="m337.54,120.96h-27.39c-.45,0-.75-.38-.75-.83,0-.38.3-.75.75-.75h1.13v-43.5h-1.13c-.45,0-.75-.3-.75-.75s.3-.75.75-.75h14c.45,0,.83.3.83.75s-.38.75-.83.75h-1.13v40.86h10.23c9.33,0,9.18-8.88,4.52-8.88-5.04,0-4.44,6.1-4.44,6.1-8.2,0-7.6-11.89,3.16-11.89,14.15,0,12.12,18.89,1.05,18.89Z"/>
      </g>
      <path class="cls-1" d="m228.31,119.46c0,.79-.56,1.35-1.35,1.35h-24.25c-.79,0-1.35-.56-1.35-1.35s.56-1.35,1.35-1.35h2.03v-43.2c10.38-1.69,15.9-8.46,15.9-14.89,0-6.99-6.09-10.38-12.41-10.38h-2.71l.34,2.71c0,1.02,0,3.61-1.13,5.53v-9.7c0-5.53-.79-8.46-3.72-8.46-8.8,0-14.66,23.01-1.24,23.01,9.59,0,8.46-10.6,8.46-10.6,15.68,0,12.63,20.64-8.57,20.64-30.12,0-25.49-39.93,5.08-39.93,13.65,0,20.3,6.32,20.3,21.43v63.84h1.92c.79,0,1.35.56,1.35,1.35Zm15.34-35.98l-5.75,3.16-3.16,5.75-3.16-5.75-5.75-3.16,5.75-3.16,3.16-5.75,3.16,5.75,5.75,3.16Zm25.38,35.98c0,.79-.68,1.35-1.35,1.35h-24.36c-.68,0-1.35-.56-1.35-1.35s.68-1.35,1.35-1.35h2.03V42.76h-2.03c-.68,0-1.35-.56-1.35-1.35s.68-1.35,1.35-1.35h24.36c.68,0,1.35.56,1.35,1.35s-.68,1.35-1.35,1.35h-2.03v75.35h2.03c.68,0,1.35.56,1.35,1.35Z"/>
      <g>
        <path class="cls-3" d="m383.76,75.57c0,.45-.38.75-.83.75h-.75l-10.99,22.57-14.67,33.14h1.2c.38,0,.75.38.75.83,0,.38-.38.75-.75.75h-14.07c-.38,0-.75-.38-.75-.75,0-.45.38-.83.75-.83h1.2l14.67-33.06-10.99-22.65h-1.58c-.45,0-.83-.3-.83-.75s.38-.75.83-.75h13.7c.45,0,.75.3.75.75s-.3.75-.75.75h-.38l8.13,16.25,8.2-16.25h-.68c-.45,0-.75-.3-.75-.75s.3-.75.75-.75h7c.45,0,.83.3.83.75Z"/>
        <path class="cls-5" d="m357.72,134.62h-14.07c-.93,0-1.75-.82-1.75-1.75,0-.99.8-1.83,1.75-1.83h.55l14.22-32.04-10.51-21.67h-.95c-1.02,0-1.83-.77-1.83-1.75s.8-1.75,1.83-1.75h13.7c1,0,1.75.75,1.75,1.75,0,.59-.26,1.09-.68,1.41l6.69,13.37,6.68-13.23c-.55-.29-.91-.86-.91-1.55,0-1,.75-1.75,1.75-1.75h7c1.02,0,1.83.77,1.83,1.75s-.8,1.75-1.83,1.75h-.13l-10.71,22.01-14.05,31.73c.8.16,1.43.92,1.43,1.8,0,.93-.82,1.75-1.75,1.75Zm-12.03-2h9.48l15.11-34.12,11.03-22.67h-3.33l-9.58,18.99-9.49-18.99h-9.5l11.22,23.14-14.94,33.66Z"/>
      </g>
    </g>
    <path id="path8909" class="cls-2" d="m234,201.4c-1.8-.4-3.8-.9-5.8-1.6-4.2-1.1-8.7-2.2-13.2-3.1h-.5c-.7,0-1.4.1-2.2.1v2c.2.2.4.2.4.4,6.5,2.7,12.9,4.7,19.6,6,.7.2,1.6.2,2.2.2.4-.2.9-.4,1.1-.9.7-1.6,0-2.7-1.6-3.1Zm18.9-7.1c-2.9-.2-5.6,0-8.5-.2-4.7-.7-9.6-1.6-14.3-2.2-.8-.2-1.6-.4-2.3-.4-.5,0-.9.1-1.4.4v2.2c8.7,2.5,17.4,4.5,26.5,3.8,1.6,0,3.1,0,4.7-.9v-2.5c-1.8,0-3.1-.2-4.7-.2Zm-44.7.9c-.2-.4-.7-.9-1.1-1.1-.9-.4-2-.9-3.1-1.1-2.9-.9-5.8-1.8-8.7-2.5-.9-.2-1.8-.2-2.9-.2,0,1.3-.4,2.2.7,2.9,4.2,2,8.5,3.8,12.9,4.5,1.8.2,2.5-.7,2.2-2.5Zm302.5-6.9c-1.6,0-1.8.2-1.8,1.8s.2,2,1.8,2,2-.4,2-2-.2-1.8-2-1.8Zm-291.5-.1c-8.7-2-17.2-4.7-25.7-7.6-.9-.3-1.7-.3-2.9-.5q-.2,2.5,1.3,3.1c5.1,2,10.3,3.8,15.2,6,3.8,1.6,7.8,2.2,11.8,2,.4,0,.9,0,1.6-.2v-2.4c-.4,0-.9-.2-1.3-.4Zm315.8-9.1c-.4-.3-.9-.3-1.4-.3-1.4,0-2.8.6-4.1,1.3-4,1.8-8,4-12,6-1.1.4-.9,1.6-.7,2.9,1.1-.2,2-.2,2.9-.4,2.5-.9,4.9-1.8,7.1-2.9,2.5-1.1,4.9-2.2,7.1-3.3,1.8-.9,1.6-1.1,1.1-3.3Zm-356.3,5.2c-9.6-2.9-19-5.8-28.3-8.9-.8-.2-1.5-.3-2.3-.3-.5,0-.9.1-1.4.3v2c.4.2.9.4,1.3.4,11.8,3.8,23.6,7.1,35,11.6,1.1.4,2.2.4,3.3,0v-2.6c-2.7-.9-5.1-1.6-7.6-2.5Zm-36.9-11.8c-1.6,0-1.8.2-2,1.8,0,1.6.4,2,2,2s2-.2,2-1.8c0-1.8-.5-2-2-2Zm128-2.4c-1-.1-1.7-.2-2.2-.2-.8.1-1.1.7-1.4,2.1v.4c-.2,2.7-.2,5.4-.4,8,0,.2.2.7.2,1.1h2.5c.4-3.8,2.2-7.6,1.3-11.4Zm-135.4-.3c-10.9-2.7-22.3-4.5-33.7-5.6h-2v2.5c.7,0,1.3.2,1.8.2,5.1.9,10,1.6,15.2,2.5,5.1,1.1,10.5,2.2,15.8,3.3,1.3.4,2.7.9,3.8,0v-2.5c-.2-.2-.7-.2-.9-.4Zm404.2-5.7c-.6-.1-1.2-.2-1.7-.2-.2,0-.3,0-.5.1-1.3.4-2.7.9-4,1.6-3.1,1.8-6.5,3.8-9.6,5.6q-1.3.9-.9,3.1c.9,0,2,0,2.7-.4,4-1.8,8-3.8,12-5.8,1.8-.9,2.9-1.8,2-4Zm-445.7-1c-1.8,0-2,.2-2,2,0,1.3.2,1.8,2,1.8,1.6,0,1.8-.4,1.8-2s-.2-1.8-1.8-1.8Zm161.9,0c-.5-.1-1-.2-1.6-.2s-1.1.1-1.7.4c-.2.9-.7,2.2.4,2.9.7.2,1.8.2,2.5-.2,1.1-.4.4-1.6.4-2.9Zm-169.8-.5c-1.4,0-1.5,1-1,3.1h2.9v-2.9c-.8-.1-1.4-.2-1.9-.2Zm141.7-2.4c-.5,0-.9.1-1.3.7-.2.4-.2,1.6,0,2,.7.9,1.8.7,2.9.2v-2.9c-.5.1-1.1,0-1.6,0Zm297.4-2.3c-.2,0-.4,0-.7.1-1.6,0-2,.2-2,2,0,1.6.4,2,2.2,2,1.6,0,2-.4,2-2.2.1-1.4-.1-1.9-1.5-1.9Zm-424.5-5.1c-2.7-.2-5.1-.7-7.8-.7-2-.1-4.2-.1-6.7-.1v2c4.7.9,8.7,1.6,12.9,2.2h2.2c.2,0,.7-.4.7-.7.7-1.3,0-2.5-1.3-2.7Zm-23.3-1.8l-5.4.1v3.1c2,0,3.6.2,5.4.2,1.1,0,1.3-.9,1.3-1.6,0-.9-.2-1.8-1.3-1.8Zm121.9-1.7c-1.8,0-2.2.2-2.2,1.3-.2,1.1-.2,2.5-.2,3.8,2.7.2,4.2-1.1,4-3.6,0-1.1-.7-1.5-1.6-1.5Zm-70.9-2.9c-1.6,0-1.8.2-1.8,1.8,0,1.3.4,1.8,2,1.6,1.3,0,1.8-.2,1.8-1.8-.2-1.4-.5-1.6-2-1.6Zm38-.5h-2.5v2.7c.9-.2,1.8-.2,2.7-.2,0-.9,0-1.6-.2-2.5Zm365.9-1.6h-2.8v.1c-.9,0-1.3.4-1.3,1.3.2.7.2,1.8.7,2,.9.2,1.8.2,2.7,0,.9-.2.9-1.1.9-1.8,0-.4,0-.9-.2-1.6Zm-342.3.3c-1-.2-1.6-.3-2-.2-.7.1-1,.5-1.6,1.8-1.1,3.6-2,6.9-3.1,10.5-.2.7,0,1.6,0,2.2q2.5.4,3.1-1.3c.9-2.5,2-4.9,2.9-7.4.7-1.8,1.1-3.6.7-5.6Zm-11.7-.2c-.9-.3-1.5-.4-2-.4-.8.1-1.2.7-1.5,2.1-.4,1.8-.9,3.8-1.1,5.6-.2.7,0,1.3,0,1.8q2.5.7,3.1-1.3c.4-1.1.9-2,1.3-3.1.7-1.6.7-3.1.2-4.7Zm22.4-1.4c-1.6,0-2,.4-2,2.2,0,1.6.2,1.8,1.8,2,1.8,0,2.2-.4,2.2-2.2,0-1.5-.5-2-2-2Zm-56.4-1.7c-1.2-.3-1.8-.5-2.3-.4-.8.1-.9.6-1.3,2.2-.2.7-.4,1.6-.4,2.2-.2,1.3-.9,2.9-.2,4.5h2.2c.9-2.9,2.7-5.4,2-8.5Zm-14.1-.9c-1.6.2-2,.7-2,2.5,0,1.3.4,1.8,2,1.8,1.8,0,2-.4,2-2.2,0-1.9-.2-2.1-2-2.1Zm-10.7-2.7c0,1.1,0,1.8.2,2.5h2.5v-2.5h-2.7Zm404.2-.7c-.9,0-1.8,0-2.5.2-2.7,1.1-5.1,2.5-7.6,3.8v2.5c1.3-.2,2.2-.2,3.3-.7,1.8-.7,3.6-1.6,5.6-2.2,1.8-.9,1.8-1.1,1.2-3.6Zm-431.2-6.7c-3.1-.2-6.5-.2-9.6-.2-1.6,0-3.1.2-4.7.4v1.8c4.7.7,8.9,1.1,13.4,1.6.4.2,1.1,0,1.6,0,.7,0,1.1-.4,1.1-1.1.4-1.8,0-2.5-1.8-2.5Zm42.2-1.1c-.3,0-.4,0-.6-.1-1.2,0-1.9.4-2.1,1.4-.4,1.8-.9,3.6-1.3,5.1,0,.9.2,1.6.2,2.5h2.7c1.1-2.2,2-4.5,2.2-6.9,0-.9,0-1.8-1.1-2Zm136.2,40.9c-1-.1-1.7-.2-2.2-.2-.8.1-1.1.7-1.4,2.1v.4c-.2,2.7-.2,5.4-.4,8,0,.2.2.7.2,1.1h2.5c.4-3.8,2.2-7.6,1.3-11.4Zm-16.6-7.2c-.6,0-1.1.1-1.7.4-.2.9-.7,2.2.4,2.9.7.2,1.8.2,2.5-.2,1.1-.4.4-1.6.4-2.9-.5-.1-1-.2-1.6-.2Zm-26.5-2.7c-.5,0-.9.1-1.3.7-.2.4-.2,1.6,0,2,.7.9,1.8.7,2.9.2v-2.9c-.5.1-1.1,0-1.6,0Zm-27.1-17.2c-1.6,0-2,.4-2,2.2,0,1.6.2,1.8,1.8,2,1.8,0,2.2-.4,2.2-2.2,0-1.5-.5-2-2-2Zm-1.4,6.3c-1.8,0-2.2.2-2.2,1.3-.2,1.1-.2,2.5-.2,3.8,2.7.2,4.2-1.1,4-3.6,0-1.1-.7-1.5-1.6-1.5Zm-11.3-4.9c-.7.1-1,.5-1.6,1.8-1.1,3.6-2,6.9-3.1,10.5-.2.7,0,1.6,0,2.2q2.5.4,3.1-1.3c.9-2.5,2-4.9,2.9-7.4.7-1.8,1.1-3.6.7-5.6-1-.2-1.6-.3-2-.2Zm-11.7-.4c-.8.1-1.2.7-1.5,2.1-.4,1.8-.9,3.8-1.1,5.6-.2.7,0,1.3,0,1.8q2.5.7,3.1-1.3c.4-1.1.9-2,1.3-3.1.7-1.6.7-3.1.2-4.7-.9-.3-1.5-.4-2-.4Zm-12.4,1.9v2.7c.9-.2,1.8-.2,2.7-.2,0-.9,0-1.6-.2-2.5h-2.5Zm-21.9-5c-.8.1-.9.6-1.3,2.2-.2.7-.4,1.6-.4,2.2-.2,1.3-.9,2.9-.2,4.5h2.2c.9-2.9,2.7-5.4,2-8.5-1.2-.3-1.8-.5-2.3-.4Zm-7.3-11.7c-.3,0-.4,0-.6-.1-1.2,0-1.9.4-2.1,1.4-.4,1.8-.9,3.6-1.3,5.1,0,.9.2,1.6.2,2.5h2.7c1.1-2.2,2-4.5,2.2-6.9,0-.9,0-1.8-1.1-2Zm-4.5,11.2c-1.6.2-2,.7-2,2.5,0,1.3.4,1.8,2,1.8,1.8,0,2-.4,2-2.2,0-1.9-.2-2.1-2-2.1Zm-1.8,6c-1.6,0-1.8.2-1.8,1.8,0,1.3.4,1.8,2,1.6,1.3,0,1.8-.2,1.8-1.8-.2-1.4-.5-1.6-2-1.6Zm-8.7-6.2h2.5v-2.5h-2.7c0,1.1,0,1.8.2,2.5Zm395-23.9v2.9c1.1-.2,2-.2,2.9-.2v-2.7h-2.9Zm-413.5-3.7c-.8,0-1.5,0-2.3.3-.2,1.1-.4,2,.7,2.5,1.8.4,3.6.9,5.6.4v-2.7c-1.4-.1-2.7-.4-4-.5Zm70.8-1.7h-1.9c-.7,0-1.3.2-1.3,1.1,0,.7-.2,1.8.9,2,1.6.2,2.9.9,4.5.2.2-2.5-.2-3.1-2.2-3.3Zm-4.1-9.8v2.7h2.9v-2.7h-2.9Zm326.5-8.8c-.3-.4-.7-.5-1.3-.5-.5,0-1.1.1-1.8.1,0,1.3-.7,2.5.7,3.1.4.2,1.8.2,2.2-.2.4-.4.7-1.8.2-2.5Zm-385.8-.9c-.3-.1-.7-.2-1.1-.3-.4,0-.9,0-1.2.1-1.1.7-.7,1.8-.4,3.1,1.1,0,2.5.7,2.9-.4.4-.7.2-2-.2-2.5Zm392.1-1.7v2.9h3.1v-2.9h-3.1Zm-324.9,1.1c-3.4-.4-6.8-1.8-10.4-1.8-.5,0-1,0-1.6.1q-.4,3.1,2.2,3.3c2.2.2,4.7.7,6.9.9h3.1c-.2-.9-.2-1.6-.2-2.5Zm342.8-5.4c-.3-.8-1-1-1.6-1-.7,0-1.1,0-1.6.2-2.9,1.1-5.8,2.5-8.7,3.6v2.2c.7,0,1.1.2,1.6,0,3.1-.7,6.2-1.6,9.4-2.5,1.1-.4.9-1.6.9-2.5Zm-425.2-5.1v2.2c4.2,1.3,14.5,3.1,16.5,2.7v-2.4c-5.4-.7-10.7-2-16.5-2.5Zm412.6-.4c0,1.1.2,2,.2,2.9h2.9v-2.9h-3.1Zm-322.5.8c-2-.2-4-.7-6-.9-.2-.1-.3-.2-.4-.2-.8,0-1.2.6-1.4,1.4,0,1.6.2,2.2,1.3,2.5,2.2.2,4.5.2,6.5-.2,0-.7.2-.9.2-1.3,0-.2-.2-.4-.2-1.3Zm-84.4-8.8h-3.1c0,1.1-.4,2.2.4,2.9.7.2,2,.2,2.5,0,1.1-.7.7-1.8.2-2.9Zm365.2-7.2v2.5c1.1,0,2,0,2.7-.2v-2.2l-2.7-.1Zm-29.6-1.3c-.4,0-.9.1-1.4.2v2c.2,2.2.9,2.7,3.1,1.8.4-2.9,0-4-1.7-4Zm-180.7,130.9c-2.9-.2-5.6,0-8.5-.2-4.7-.7-9.6-1.6-14.3-2.2-.8-.2-1.6-.4-2.3-.4-.5,0-.9.1-1.4.4v2.2c8.7,2.5,17.4,4.5,26.5,3.8,1.6,0,3.1,0,4.7-.9v-2.5c-1.8,0-3.1-.2-4.7-.2Zm-18.9,7.1c-1.8-.4-3.8-.9-5.8-1.6-4.2-1.1-8.7-2.2-13.2-3.1h-.5c-.7,0-1.4.1-2.2.1v2c.2.2.4.2.4.4,6.5,2.7,12.9,4.7,19.6,6,.7.2,1.6.2,2.2.2.4-.2.9-.4,1.1-.9.7-1.6,0-2.7-1.6-3.1Zm-15.1-10.2c.4,0,.9,0,1.6-.2v-2.4c-.4,0-.9-.2-1.3-.4-8.7-2-17.2-4.7-25.7-7.6-.9-.3-1.7-.3-2.9-.5q-.2,2.5,1.3,3.1c5.1,2,10.3,3.8,15.2,6,3.8,1.6,7.8,2.2,11.8,2Zm-11.8,2.9c-.9-.4-2-.9-3.1-1.1-2.9-.9-5.8-1.8-8.7-2.5-.9-.2-1.8-.2-2.9-.2,0,1.3-.4,2.2.7,2.9,4.2,2,8.5,3.8,12.9,4.5,1.8.2,2.5-.7,2.2-2.5-.2-.4-.7-.9-1.1-1.1Zm-56.7-18.7c-.8-.2-1.5-.3-2.3-.3-.5,0-.9.1-1.4.3v2c.4.2.9.4,1.3.4,11.8,3.8,23.6,7.1,35,11.6,1.1.4,2.2.4,3.3,0v-2.6c-2.7-.9-5.1-1.6-7.6-2.5-9.6-2.9-19-5.8-28.3-8.9Zm-8.6-2.9c-1.6,0-1.8.2-2,1.8,0,1.6.4,2,2,2s2-.2,2-1.8c0-1.8-.5-2-2-2Zm-41.1-8.3h-2v2.5c.7,0,1.3.2,1.8.2,5.1.9,10,1.6,15.2,2.5,5.1,1.1,10.5,2.2,15.8,3.3,1.3.4,2.7.9,3.8,0v-2.5c-.2-.2-.7-.2-.9-.4-10.9-2.7-22.3-4.5-33.7-5.6Zm8.1-79v-2.4c-5.4-.7-10.7-2-16.5-2.5v2.2c4.2,1.3,14.5,3.1,16.5,2.7Zm-2.4,5.9c-.4,0-.9,0-1.2.1-1.1.7-.7,1.8-.4,3.1,1.1,0,2.5.7,2.9-.4.4-.7.2-2-.2-2.5-.3-.1-.7-.2-1.1-.3Zm-7.9,24.3c1.8.4,3.6.9,5.6.4v-2.7c-1.4-.1-2.7-.4-4-.5-.8,0-1.5,0-2.3.3-.2,1.1-.4,2,.7,2.5Zm2.4,40.1c.7-1.3,0-2.5-1.3-2.7-2.7-.2-5.1-.7-7.8-.7-2-.1-4.2-.1-6.7-.1v2c4.7.9,8.7,1.6,12.9,2.2h2.2c.2,0,.7-.4.7-.7Zm-3.1-80.7c1.1-.7.7-1.8.2-2.9h-3.1c0,1.1-.4,2.2.4,2.9.7.2,2,.2,2.5,0Zm-4.9,88.3c-1.8,0-2,.2-2,2,0,1.3.2,1.8,2,1.8,1.6,0,1.8-.4,1.8-2s-.2-1.8-1.8-1.8Zm-.8-29.2c.7,0,1.1-.4,1.1-1.1.4-1.8,0-2.5-1.8-2.5-3.1-.2-6.5-.2-9.6-.2-1.6,0-3.1.2-4.7.4v1.8c4.7.7,8.9,1.1,13.4,1.6.4.2,1.1,0,1.6,0Zm-8.1,31.8h2.9v-2.9c-.8-.1-1.4-.2-1.9-.2-1.4,0-1.5,1-1,3.1Zm-7.7-14.7l-5.4.1v3.1c2,0,3.6.2,5.4.2,1.1,0,1.3-.9,1.3-1.6,0-.9-.2-1.8-1.3-1.8ZM483.6,53.6c-.3-1.3-.4-1.7-1.1-1.8-.4,0-1,.1-1.9.2-.4,1.6.2,3.1.4,4.7q.7,2.5,3.3,2c.4-1.8.2-3.6-.7-5.1Zm-315-2.3v2.4h2.9v-2.6c-1.1,0-2,.2-2.9.2Zm333.8-4.1h-2.4v.1c0,3.6.7,6.7,1.1,10,.2,1.1,1.3,1.3,2.7,1.1,1.1,0,1.1-.9,1.1-1.8,0-3.3-1.6-6.2-2.5-9.4Zm-65.2-1.5c-.5,0-1.1.1-1.9.3v3.1h3.1c.4-2.5.2-3.4-1.2-3.4Zm63-4.7c-.5,0-1,0-1.7.1v2.7c0,1.1.9,1.1,1.8,1.1s1.3-.2,1.6-1.3c.1-1.7-.4-2.5-1.7-2.6Zm-63,4.7c-.5,0-1.1.1-1.9.3v3.1h3.1c.4-2.5.2-3.4-1.2-3.4Zm73.1-6.8c-.9,0-1.6.2-2.2.2,0,.4-.2.9,0,1.3.2,2.2.7,4.5,1.1,6.7.2.9.7,1.1,1.3,1.1h2c.7-3.5-1.1-6.2-2.2-9.3Zm12.4,7.3c-.4-2-.9-4-1.3-5.8-.5-1.3-.6-1.7-1.5-1.6-.3,0-.7,0-1.2.1-.2.2-.2.4-.2.4.4,2.9.9,5.8,1.3,8.7,0,.4.4.7.9.9h2c0-1.1.2-2,0-2.7Zm-99.9-7.8c-1.6,0-2,.2-2,1.6-.2,1.6.2,2,1.6,2,1.8,0,2.2-.2,2.2-1.6,0-1.8-.2-2-1.8-2Zm106.2-3.8c-1.8,0-2,.2-2.2,1.8,0,1.8.2,2,1.6,2.2,1.6,0,2.5-.4,2.5-1.8-.1-1.7-.3-2.2-1.9-2.2Zm-113.6-.4c-.6-.2-1.2-.2-1.8-.2-2.3,0-3.1,1.1-2.4,3.3,3.3.7,4.5-.2,4.2-3.1Zm-234.8-2.8c-.8-.3-1.8-.4-2.9-.4-3.4,0-7.8.6-10,1.6v2.5c4.7,0,8.7-1.1,12.9-1.3.2-.7.2-1.1.2-1.3,0-.4,0-.7-.2-1.1Zm348.4,3.2c-1.8,0-2,.2-2.2,1.8,0,1.8.2,2,1.6,2.2,1.6,0,2.5-.4,2.5-1.8-.1-1.7-.3-2.2-1.9-2.2Zm-7.6,5.8c-.5-1.3-.6-1.7-1.5-1.6-.3,0-.7,0-1.2.1-.2.2-.2.4-.2.4.4,2.9.9,5.8,1.3,8.7,0,.4.4.7.9.9h2c0-1.1.2-2,0-2.7-.4-2-.9-4-1.3-5.8Zm-13.3-1.3c0,.4-.2.9,0,1.3.2,2.2.7,4.5,1.1,6.7.2.9.7,1.1,1.3,1.1h2c.7-3.5-1.1-6.2-2.2-9.3-.9,0-1.6.2-2.2.2Zm-8.1,8.1v.1c0,3.6.7,6.7,1.1,10,.2,1.1,1.3,1.3,2.7,1.1,1.1,0,1.1-.9,1.1-1.8,0-3.3-1.6-6.2-2.5-9.4h-2.4Zm1.9-3.6c.1-1.7-.4-2.5-1.7-2.6-.5,0-1,0-1.7.1v2.7c0,1.1.9,1.1,1.8,1.1s1.3-.2,1.6-1.3Zm-19.4,8.2c-.4,0-1,.1-1.9.2-.4,1.6.2,3.1.4,4.7q.7,2.5,3.3,2c.4-1.8.2-3.6-.7-5.1-.3-1.3-.4-1.7-1.1-1.8Zm-19.3,15.4c1.1,0,2,0,2.7-.2v-2.2l-2.7-.1v2.5Zm-29.6-3.8c-.4,0-.9.1-1.4.2v2c.2,2.2.9,2.7,3.1,1.8.4-2.9,0-4-1.7-4Zm-10.8-25c-1.6,0-2,.2-2,1.6-.2,1.6.2,2,1.6,2,1.8,0,2.2-.2,2.2-1.6,0-1.8-.2-2-1.8-2Zm-9.2-4.4c-2.3,0-3.1,1.1-2.4,3.3,3.3.7,4.5-.2,4.2-3.1-.6-.2-1.2-.2-1.8-.2ZM170.8,12.3v2.7h2.9v-2.7h-2.9Zm367.8,151.8c-.6-.1-1.2-.2-1.7-.2-.2,0-.3,0-.5.1-1.3.4-2.7.9-4,1.6-3.1,1.8-6.5,3.8-9.6,5.6q-1.3.9-.9,3.1c.9,0,2,0,2.7-.4,4-1.8,8-3.8,12-5.8,1.8-.9,2.9-1.8,2-4Zm-5,14.7c-1.4,0-2.8.6-4.1,1.3-4,1.8-8,4-12,6-1.1.4-.9,1.6-.7,2.9,1.1-.2,2-.2,2.9-.4,2.5-.9,4.9-1.8,7.1-2.9,2.5-1.1,4.9-2.2,7.1-3.3,1.8-.9,1.6-1.1,1.1-3.3-.4-.3-.9-.3-1.4-.3Zm-5.8-31.1c.9.2,1.8.2,2.7,0,.9-.2.9-1.1.9-1.8,0-.4,0-.9-.2-1.6h-2.8v.1c-.9,0-1.3.4-1.3,1.3.2.7.2,1.8.7,2Zm-6.4,12.3c0,1.6.4,2,2.2,2,1.6,0,2-.4,2-2.2.1-1.4-.1-1.9-1.5-1.9-.2,0-.4,0-.7.1-1.6,0-2,.2-2,2Zm1.2-23c-.9,0-1.8,0-2.5.2-2.7,1.1-5.1,2.5-7.6,3.8v2.5c1.3-.2,2.2-.2,3.3-.7,1.8-.7,3.6-1.6,5.6-2.2,1.8-.9,1.8-1.1,1.2-3.6Zm-5.1-51.6c-.3-.8-1-1-1.6-1-.7,0-1.1,0-1.6.2-2.9,1.1-5.8,2.5-8.7,3.6v2.2c.7,0,1.1.2,1.6,0,3.1-.7,6.2-1.6,9.4-2.5,1.1-.4.9-1.6.9-2.5Zm-1,33.6v-2.7h-2.9v2.9c1.1-.2,2-.2,2.9-.2Zm-5.8,69.3c-1.6,0-1.8.2-1.8,1.8s.2,2,1.8,2,2-.4,2-2-.2-1.8-2-1.8Zm-2.7-108.4h-3.1c0,1.1.2,2,.2,2.9h2.9v-2.9Zm-8.4,12.7h3.1v-2.9h-3.1v2.9Zm-7.6-.8c-.5,0-1.1.1-1.8.1,0,1.3-.7,2.5.7,3.1.4.2,1.8.2,2.2-.2.4-.4.7-1.8.2-2.5-.3-.4-.7-.5-1.3-.5Zm-315.6-12c-.2-.1-.3-.2-.4-.2-.8,0-1.2.6-1.4,1.4,0,1.6.2,2.2,1.3,2.5,2.2.2,4.5.2,6.5-.2,0-.7.2-.9.2-1.3,0-.2-.2-.4-.2-1.3-2-.2-4-.7-6-.9Zm4.4-47.3c0-.4,0-.7-.2-1.1-.8-.3-1.8-.4-2.9-.4-3.4,0-7.8.6-10,1.6v2.5c4.7,0,8.7-1.1,12.9-1.3.2-.7.2-1.1.2-1.3Zm-16.5,56.5c-.5,0-1,0-1.6.1q-.4,3.1,2.2,3.3c2.2.2,4.7.7,6.9.9h3.1c-.2-.9-.2-1.6-.2-2.5-3.4-.4-6.8-1.8-10.4-1.8Zm9.4-76.7h-2.9v2.7h2.9v-2.7Zm-2.8,98.6h-1.9c-.7,0-1.3.2-1.3,1.1,0,.7-.2,1.8.9,2,1.6.2,2.9.9,4.5.2.2-2.5-.2-3.1-2.2-3.3Zm-2.3-57.2h2.9v-2.6c-1.1,0-2,.2-2.9.2v2.4Zm1.1,47.4h-2.9v2.7h2.9v-2.7Zm393.4,51.2c-4.2-8.7-7.8-17.6-10.9-26.8-4.9-15.2-8-30.8-9.6-46.4-1.1-10-1.8-19.9-1.1-29.9.2-2.7.4-5.6.4-8.3-.2-5.6-2.7-10-7.1-13.4-4-3.1-8.7-4.5-13.6-4.9-8.7-.7-17.4.4-25.7,3.8-8.9,3.6-17.6,7.8-26.1,12.7-5.4,3.1-10.9,5.8-16.5,8.7-1.6.9-3.1,1.3-4.9,2.2-.2-.7-.2-1.1-.2-1.6-.9-5.6-1.8-11.4-2.7-17.2-.2-3.1-1.8-5.4-4.2-7.1-3.1-2-6.5-2.9-10-3.1-10-.9-19.4.9-28.3,5.1-4.5,2.2-8.5,4.9-11.8,8.5-4.9,5.4-5.6,12-2.7,18.3,2.2,4.5,4.2,9.1,6.2,13.8.2.4.4.9.7,1.6-.9,0-1.3-.2-1.8-.2-8.5-2.5-17-4.9-25.2-7.6-24.3-8.3-47.7-18.1-71.2-28.3-20.7-9.1-41.7-17.6-63.1-24.8-14.1-4.2-28.3-6.9-43-6.9-2.1,0-4.2.1-6.3.2-6.7.4-13.2,1.3-19.2,4.2-9.4,4.2-14.5,11.4-14.9,21.6-.4,13.8-3.1,27.4-7.6,40.6-.4,1.6-1.1,3.3-1.8,4.9-.7,0-1.3-.2-1.8-.4-15.8-4-31.9-7.4-48-9.8-18.7-2.7-37.3-3.6-56-2.2-2,0-3.8.2-5.6.4q-.7,2.9,1.8,4c2.5,1.1,4.9,2.2,7.4,3.3,16.7,8.9,31.7,20.1,45.5,33.2,2.2,2.2,4.5,4.7,6.9,7.4-3.3,1.3-6.2,2.5-9.1,3.8-19.9,9.6-38.8,21-56,34.8-6,4.7-11.8,9.8-17,15.6-2.7,3.1-4.9,6.5-7.4,9.8-.7.9-1.1,2-1.1,3.3.2.9.4,1.3,1.3,1.3,1.3,0,2.5,0,3.6-.2,11.4-1.6,22.8-2.5,34.1-2.9,9.8-.4,19.6-.4,29.7.2,18.3.9,36.4,3.1,54.2,7.6,17.2,4,33.9,9.8,50.2,15.8,12.9,4.7,25.9,9.8,38.6,14.7,3.6,1.3,7.1,2.7,10.7,3.8,10.3,3.8,20.7,5.6,31.7,5.1,5.8-.2,10.9-1.6,15.6-4.5,2.2-1.3,3.8-3.1,4.9-5.1,1.8-2.7,2.2-5.8,2.2-8.9-.4-9.6,0-19.2.7-28.8.2-2.2.4-4.5.9-6.7h.7c.4.2,1.1.4,1.8.7,26.5,10.7,53.8,20.1,81.4,27.7,29.7,8.5,60,12.5,91,12.5,14.9-.2,29.9-1.1,44.6-3.6,11.6-2,23-4.9,33.9-9.4,7.6-3.1,14.7-7.1,21-12.3,3.8-3.1,7.1-6.7,9.4-11.2,3.1-6,3.6-12.3.4-18.7Zm-102.1-103.9c5.1-2.7,10.3-5.6,15.4-8.5,8-4.5,16.3-8.5,25-11.4,5.3-1.2,10.3-2.3,15.6-2.2.7,0,1.5,0,2.2.1,4.5.4,8.5,1.6,12,4,1.6,1.1,2.9,2.5,4,4,4,4.9,4.2,11.8-1.3,17.8-.2-1.3-.4-2.5-.7-3.6-.4-1.8-.9-3.8-1.3-5.8-.4-1.8-.7-1.8-3.1-1.6,0,.9,0,1.8.2,2.5.2,3.1.7,6.2,1.3,9.1.4,2.2-.2,3.8-2,4.9-.7.2-1.3.7-2.2,1.3-.2-1.8-.7-3.1-.9-4.7-.4-1.3-.9-2.9-1.3-4.2h-2.5c-.9,2,0,3.8.2,5.6.2,2,.4,3.8.7,6-1.8.7-3.1,1.6-4.9,2.5-1.1-4.5-2.5-8.7-3.8-12.7h-2c-.7.9-.4,2-.2,3.1.9,3.6,1.6,7.4,2.2,11.4-1.8.7-3.6,1.3-5.6,2.2-.7-2.5-1.1-4.9-1.8-7.4h-2.5c-.7,2.9.4,5.6.2,8.5-1.8.7-3.8,1.3-5.8,1.8-.2-.7-.4-1.1-.4-1.6-.9-4.5-2-8.9-2.9-13.4-.2-1.1-.7-1.6-1.8-1.3-1.3,0-1.8.2-1.6,1.6.2,2.2.7,4.2.9,6.5.4,2.5.9,5.1,1.3,7.6.2.7.2,1.1.2,1.8-1.8.4-3.3.7-5.1,1.1-.2-.4-.4-.9-.4-1.3-.7-2.2-1.1-4.2-1.6-6.5-.7-2.5-.9-2.5-3.8-2-.4,3.6.9,6.9,1.1,10.7-2,.4-3.6.7-5.6,1.1-1.1-4.9-2.2-9.8-3.6-14.5h-2.7c.2,1.3.2,2.5.4,3.6.4,3.1.9,6,1.3,9.1.2.7.2,1.3.2,2.2-1.8.2-3.6.4-5.1.4-.9-2-1.6-4-2.2-6q-.4-1.8-2.7-1.3c-.7,2.7.7,5.1.4,7.8-2,0-3.8.2-5.6.2-1.3-4.7-2.5-9.1-3.8-13.6h-2.2c-.7,2.5.4,4.5.7,6.7.2,2.2.4,4.5.9,6.9-2,.2-4,.2-5.8,0-.9-2.9-1.6-5.6-2.2-8.5-.7,0-1.6-.2-2.2-.2-.7,2.9.4,5.6,0,8.7-2.2-.2-4.5-.4-6.5-.4-.4-1.6-.7-2.9-1.1-4.2-.4-1.8-.7-1.8-3.1-1.6v5.4c-2.2-.2-4.2-.4-6-.7-.9-3.3-1.8-6.5-2.7-9.6h-2.7c-.4,2.9,1.1,5.8.4,8.9-1.6-.2-3.1-.4-4.9-.9-1.1-2.5-2-4.7-3.1-7.4h-2c-.7,2,0,4.2-.4,6.5-1.3-.4-2.7-.7-3.8-.9-.9,0-.9-.7-1.1-1.3-.4-2.2-1.1-4.5-1.6-6.7q-.7-2-3.1-1.6c-.7,2.7,1.3,5.4.9,8.3-2.5.4-3.6-.2-4.5-2.5-.9-2.5-2-4.9-3.1-7.4-.2-.4-.4-1.1-.7-1.8.7.2,1.1.2,1.6.4,4,1.1,8,1.8,12.3,2,10,.4,19.6-.7,29.2-3.6,7.8-2.2,15.4-5.6,22.8-9.4Zm-49.3,9.4c.9-.9,1.6-1.8,2.7-2.7.4,1.1.7,1.8,1.1,2.9-1.3.2-2.5.2-3.6.2q0-.2-.2-.4Zm32.6-5.8c-1.3.4-2.7.9-4,1.6-.4-1.1-.9-2-1.3-3.1h-2.2v4.2c-2.2.7-4.5,1.1-6.7,1.8-1.1-1.6-1.3-4-4-2.7v3.3c-.9.2-1.8.4-2.5.4-1.3.2-2.5.2-4,.4-.9-2.9-1.8-5.6-2.9-8.7,1.1-.2,1.8-.4,2.7-.7,4.7-.7,9.6-2,14.1-3.8,3-1.2,5.9-2.7,8.8-5.2.7,4.5,1.3,8.3,2,12.5Zm-50.3,1.6c.7-1.1,1.1-2.2,1.8-3.1,2.5-3.3,5.4-6.7,9.1-8.7,1.1-.9,1.8-1.6,1.1-3.1-.9-.4-2-.2-3.1.2-4.5,2-8,4.9-10.7,8.9-.4.4-.7.9-1.3,1.8-.9-1.8-1.3-3.3-.9-5.1.7-2.5,2-4.5,3.6-6.2,2.5-2.9,5.6-5.1,9.1-6.9,6.9-4,14.5-6,22.5-6.7.5-.1.9-.2,1.3-.2,2.9,0,5.6.4,8.3,1.6,2.2.7,4,1.8,5.6,3.6,1.3,2,1.3,3.6,0,5.6-1.6,2.2-3.6,3.8-6,4.7-3.1,1.6-6.5,2.9-10,3.8-2.7.9-5.8,1.3-8.7,2h-1.3c1.3-1.6,4-1.6,2.7-4.2-.9-.4-1.8-.4-2.9.2-1.3.4-2.7,1.1-4,1.8-2,1.1-2.2,1.3-1.8,3.8,1.1.7,2.5.2,3.6,0,.4,1.3.7,2.7,1.1,4-1.6,1.1-3.1,2.2-4.7,3.3-.4.7-1.3,1.1-1.8,2-.7.9-1.3,1.1-2.5.9-.9-.4-1.6-.4-2.7-.9.9-2,2.5-3.8,4-5.1.9-.9,1.3-1.8,1.1-3.1-1.1-.7-2.2-.4-3.1.4-1.8,1.3-3.3,2.9-4.9,4.5-.7.4-1.1,1.1-1.8,1.8-.9-.4-1.6-.9-2.7-1.6Zm-120.1,150.3c-.9,4.7-3.6,8.3-8,10.5-4.5,2-9.1,2.7-14.1,2.9-8.7,0-17-1.8-25.2-4.7-10.5-3.8-21.2-7.8-31.7-11.8-20.5-8.3-41.3-15.6-62.7-21.4-13.2-3.6-26.5-6-40.2-7.6-17-2-33.7-2.5-50.6-2-10.5.2-20.7,1.1-31.2,2.2-1.1.2-2,.2-3.1.4-.2-1.1.4-1.6.7-2,4.2-5.8,9.1-10.7,14.5-15.4,11.8-10.5,24.5-19.2,37.9-27.2,9.6-5.6,19.6-10.9,29.9-15.2,1.6-.7,3.1-1.3,4.9-2,1.6-.7,2.2-2,1.1-3.6-.9-1.1-1.8-2.2-2.7-3.1-6.7-7.8-14.3-14.3-22.1-20.5-9.6-7.4-19.6-14.3-30.6-19.9-.4-.2-.7-.4-1.1-1.1,1.6,0,2.9-.2,4.5-.2,1.5.2,3.2.2,4.9.2,12.1-.1,24,.8,36.1,2.3,17.6,2.2,35,5.8,52.2,10.5.7.2,1.3.4,2.2.7-.7,1.3-1.1,2.7-1.6,4.2-1.1-.2-2-.4-2.9-.7-9.6-2.5-19.2-4.5-29-6-.7,0-1.6,0-2.2-.2q-.4,2,1.1,2.5c4.7.9,9.6,1.8,14.3,3.1,5.4,1.3,10.7,3.1,16.1,4.7.4,0,.7.2,1.1.4-.7,1.3-1.3,2.9-2,4.5-6.9-2.2-13.8-4-21.2-4.2v2.2c3.3.9,6.5,1.6,9.6,2.7,3.1.9,6.2,2.2,9.6,3.3-.7,1.8-1.3,3.3-2,5.1-5.4-1.6-10.5-3.3-16.3-3.6-.2-.7-.7-1.3-1.8-1.3-1.8,0-2.2.4-2,2,0,.9.4,1.6,1.1,1.6,2.2-.4,4,.9,5.8,1.3,3.8,1.1,7.4,2.5,11.2,3.6-1.1,2.2-2,4-3.1,6-4.7-1.3-9.1-2.9-14.1-2.9-.7,2.2-.4,2.2,1.3,2.7,2.7.9,5.6,1.8,8.3,2.7.7.2,1.3.7,2.5,1.1-1.1,2-2.2,3.6-3.3,5.4-4.5-1.3-8.9-2.5-13.8-2.2v2.2c3.8,1.1,7.6,2.2,11.6,3.6-1.3,2-2.5,3.6-3.8,5.4-7.4-1.8-14.9-3.1-22.8-3.1v2.2c6.7,1.3,13.2,2.7,19.9,4.2-.7,1.6-1.3,3.1-2,4.7-4-.7-8-1.8-12.3-1.3v2.2c1.8.4,3.8.9,5.8,1.6,1.8.4,3.8,1.1,5.8,1.8v6.7c-9.1-1.8-18.3-2.9-27.7-2.7,0,.4-.2.9-.2,1.1,0,.4.2.7.2,1.3.7,0,1.3,0,1.8.2,8.7.4,17.2,1.8,25.4,4,1.3.4,2,1.1,2.5,2.2.7,1.8,1.6,3.1,2.5,4.7h-5.6c-.7,2.5-.4,2.5,1.6,3.1.9.2,1.8.4,2.5.7,4,.9,7.6,2.5,11.2,4.7,4.2,2.2,8.9,3.8,13.4,5.1,10.3,3.3,20.7,5.6,31.2,6.7,4.9.4,9.4,2.2,13.8,4,1.3.4,2.5.9,4,.4.2-.7.4-1.6.7-2.5,2.2.2,4.7.4,6.9.7,1.6,0,3.1.2,4.7.2,3.3.2,6.5.4,9.4,2,2,.9,4.2,1.6,6.7,1.3.2-.7.4-1.3.7-2,13.2.7,26.5.7,39,5.1v.4c-1.8,0-3.8.2-5.8.2-6.9-.2-13.6-1.6-20.5-2.9-1.3-.4-2.7-.7-4.2-.9-.9-.2-1.8-.2-2.7-.4-.2.9-.2,1.6-.2,2,.2.2.2.4.4.4,8.3,2.5,16.5,4.9,25.2,5.6,4.7.2,9.6,0,14.3-1.1,1.3-.4,2.5-.2,3.6.4.9.7,2,1.3,2.9,1.8-1.1,1.6-2.7,2-4,2.7q-1.6.7-1.3,2.9c3.3.4,6-1.1,9.1-2.5.9,1.1,1.8,2.2,2.7,3.3-.9.9-1.6,1.6-2.5,2-6,4.7-13.2,6.5-20.7,6.2-2.2-.2-4.5-.7-6.7-.9-1.1,0-2.2,0-3.6-.2v2.5c5.8,2.2,11.8,2.7,17.8,2,6.2-.4,11.8-2.2,17-6,0,.9.2,1.3,0,2Zm0-12.8c-.2-.2-.7-.2-.7-.4-4.2-4.2-9.4-6.7-14.7-8.5-8.5-3.1-17.4-4.5-26.3-5.1-14.9-1.1-29.7-2-44.6-3.1-14.1-1.1-28.3-3.1-42.2-6.5-6.2-1.3-12.3-3.1-17.8-6-5.8-2.7-10.5-6.9-13.4-12.9-2.7-5.8-2.9-11.6.4-17.2,1.8-2.7,4-4.7,7.1-6.5-.4,3.6-2.2,6.5-1.8,9.8h2.5c.7-1.6,1.3-3.3,1.8-5.1.7-1.6,1.3-3.1,1.6-4.7.4-2,1.6-2.9,3.3-3.3,1.6-.4,2.9-.7,4.5-1.1-.2,2.5-.9,4.7-.2,6.9,2.2.7,2.7.4,3.6-1.6.3-2.2.8-4.2,1.4-6.4h7.6c-.2.7-.4,1.3-.7,2-1.3,5.1-2.7,10-4,15.2-.2,1.1-.2,2-.2,2.9,2.5,1.1,3.1.9,3.8-1.3,2.2-5.1,4-10.5,5.4-15.8,0-.9.4-1.6.7-2.7,2.2.2,4.5.4,6.7.9,0,.7-.2,1.3-.4,1.8-2.2,6.9-4,13.8-5.6,21-.2.7-.2,1.1-.2,1.8v1.6h2.5c3.6-8,6.2-16.5,8.7-25.4,2.5.7,4.5,1.1,6.9,1.8-.2.7-.2,1.3-.4,1.8-1.6,5.1-2.9,10.3-4.5,15.4-.2,1.1-.2,2.2-.4,3.3,2.9.7,3.1.7,3.8-1.6,1.8-5.6,3.6-11.2,5.4-16.7,0-.2.2-.7.4-1.1,2,.7,4.2,1.3,6.2,2-.9,4.9-3.1,9.6-3.1,14.5,2.7.7,3.1.7,3.8-1.6,1.1-3.1,2.2-6.2,3.3-9.4,0-.4.2-1.1.4-1.8,2,.7,3.8,1.3,5.6,2-.7,4-2.5,7.6-2.2,11.4,2.5.4,2.7.7,3.3-1.3,1.3-2.5,2.2-5.1,3.6-8,1.8.4,3.8,1.6,6,2.5-.4,2.5-.7,4.9-.9,7.1,2.5.9,2.5.7,3.3-1.1.4-1.3,1.1-2.9,1.6-4.5,2.2.9,4,1.8,6.2,2.7-.7,2.7-1.3,5.4-2,7.8-.2,1.3-.7,2.7-.7,4-.2.9-.2,1.8-.2,2.7.9.2,1.8.2,2.7.2,1.6-4.2,2.9-8.5,4.5-12.9,1.8.7,3.3,1.3,4.9,2,0,2-.2,4-.2,6q2.2.4,3.1-1.1c.4-1.1,1.1-2,1.8-2.9,1.6.7,2.9,1.1,4.5,1.8-.2,3.8-1.6,7.4-1.6,10.9q2.5.4,3.3-1.3c.9-2.5,1.8-4.9,2.9-7.6,1.6.7,3.3,1.3,4.9,2-.2,1.3-.2,2.7-.4,3.8q2.7.7,4.2-2c3.3,1.1,6.5,2.5,9.6,3.8,0,1.6,0,3.1-.2,4.9,1.1,0,1.8.2,2.7.2.4-1.1.9-2.2,1.1-3.6,1.3.4,2.2.9,3.6,1.3-.2,4.2-.9,8.3-.7,12.3h2.7c.7-3.3,1.3-6.7,2-10.5,1.3.4,2.5.9,3.6,1.3.2,2.2.4,4,.7,6.2.9,0,1.6,0,2.5.2.4-1.6.9-2.9,1.3-4.7,1.3.7,2.5,1.1,3.6,1.6-.4,8.7-.9,17.2-1.3,25.9Zm287.7-28.1c-.4,3.3-1.8,6.5-3.8,9.1-2.9,4.2-6.7,7.8-10.9,10.7-6.7,4.7-14.1,8.3-21.6,10.9-12.9,4.7-26.1,7.4-39.5,8.9-22.1,2.7-44.2,2.2-66.3,0-25.9-2.9-51.3-8.9-76.1-16.7-28.3-9.1-55.8-19.6-83.2-30.8-21.2-8.9-42.6-17.8-64-26.8-10.9-4.5-22.1-8.5-33.9-10.7-10.9-2-21.9-2.7-32.8-.2-2,.4-3.8,1.1-6.2,1.8,1.1-1.8,1.8-3.6,3.8-4.5,10.9-4.2,21.9-5.1,33.2-2.5,1.3.4,2.7.4,4,.7.2-.9.4-1.3.4-1.8.2-1.1-.4-1.8-1.6-2-3.8-.7-7.6-1.6-11.4-2-7.4-.7-14.3,0-21.2,2-.4,0-.7,0-1.3.2.4-1.6,1.1-2.9,2.5-3.8,4.7-2.9,9.8-4,15.2-4.2,3.8-.2,7.6.2,11.2.4,1.1,0,2,.2,3.1.2v-2.7c-8.9-1.8-17.8-2-27,.4.4-2.2,1.6-3.6,3.3-4.7,2.5-1.1,4.9-2.2,7.6-2.5,4.5-.4,8.9-.7,13.4-1.1h2.2c.2-.9.2-1.6.2-2.2-7.6-1.6-14.7-1.1-22.3.9.4-1.8.9-2.9,2.2-4,4.2-3.1,9.1-4,14.1-4.2,4.2,0,8.3.2,12.5.4h3.1c.2-.7.2-1.1.2-1.6v-1.3c-9.4-1.6-18.5-2.2-27.9.7,0-1.6.4-2.5,1.6-3.3,2.2-1.6,4.7-2.5,7.4-3.1,4.2-.9,8.7-1.1,13.2-1.1h12.2v-2.5c-10.5-1.1-20.7-2-31,.9-.2-1.3.2-2.5,1.6-3.3,2.7-2,5.8-2.7,9.1-3.3,4.7-.9,9.6-.9,14.5-.9,1.1.2,2.5,0,3.8,0v-2.5c-4.5-.7-8.9-.7-13.4-.7-4.2,0-8.7.4-12.9,2,0-2,.2-3.3,2-4.2,3.6-2.2,7.6-3.6,11.8-3.8h2.2l.4-.4v-2.2c-4.9-.7-9.6.7-14.3,2,0-2.5.4-4,2.5-4.9,6-2.9,12.3-4.5,19-4.5h2.2c.2,0,.2-.2.4-.2,0-.2.2-.4.2-.9,0-.2,0-.7-.2-1.3-7.6-1.1-14.9-.2-22.1,2.7-.4-2-.4-2.2,1.1-3.1,2.7-2,5.6-3.6,8.9-4.5q2-.7,1.6-3.3c-3.8-.4-7.4,1.3-10.7,2.7-.7-1.1.2-1.8.9-2.2,3.8-3.8,8.5-6.5,13.6-8.3q1.8-.4,1.6-2.7c-1.1.2-2,0-2.9.2-3.6.7-6.7,2-9.8,3.8-.7.2-1.6.7-2.7,1.3.4-.7.4-1.1.7-1.6,2.5-4.7,6.2-8.3,11.2-10.5,1.8-.7,1.8-.9,1.6-2.9-4-.4-6.9,1.8-10.5,3.8.4-.9.7-1.3.9-1.8,2.2-2.9,5.1-5.1,8.3-6.7,5.6-2.7,11.6-3.8,17.8-4.2,1.8-.4,3.7-.5,5.7-.5,8.5-.1,17,1.1,25.3,3,8.7,1.8,17.2,4.7,25.7,7.6,18.1,6.5,35.7,13.8,53.3,21.4,22.8,10,45.5,19.4,68.9,27.4,18.5,6.5,37.5,11.6,56.9,14.5,16.5,2.7,33,3.3,49.7,2,16.3-1.3,32.1-4.7,47.1-11.2,5.8-2.5,11.4-5.6,16.1-9.6,1.3-1.3,2.7-2.7,4.2-4.2.2,1.1.2,2,0,2.9-1.3,3.3-3.3,6-6,8-4.9,4-10,7.4-15.8,9.6q-2,.9-1.6,3.1c1.3.4,2.5.2,3.6-.2,6.9-2.5,12.9-6,18.5-10.9.4-.2.9-.7,1.3-1.1.7,1.3.4,2.2,0,3.3-1.6,2.7-3.6,4.9-6,6.5-2.9,1.8-6,3.6-9.1,5.4-.4.2-1.1.7-1.6.9-1.3.7-1.8,1.6-1.3,2.9,1.3.7,2.5.2,3.6-.2,5.4-2.2,10.7-4.5,15.2-8.5.9,1.6.4,3.1-.4,4.5-1.3,1.8-3.1,3.3-5.1,4.7-4,2.2-8,4.2-12,6.5-2,1.1-4.2,1.8-6.2,2.9v2.2c1.3.4,2.5.2,3.6,0,7.4-2,14.1-5.4,20.1-10,.4-.4.9-.7,1.3-1.1.7,1.1.7,2,0,3.1-1.1,2.2-2.7,4.2-4.9,5.6-3.8,2.2-7.6,4.5-11.4,6.7-2.7,1.3-5.6,2.7-8.3,4q-1.6.7-1.3,2.9c.9,0,1.8.2,2.5,0,7.4-2,14.3-4.7,20.3-9.1,1.6-1.1,3.1-2.2,4.7-3.6.7,1.6.9,2.9-.4,4.2-1.6,1.6-2.9,3.6-4.7,4.9-4.7,3.6-9.8,6.5-15.2,8.7q-2,.9-1.6,3.1c1.1.4,2.2.2,3.3-.2,7.1-2.5,13.8-6,19.6-11.4q.2,0,.7-.2c.7,1.8.9,3.6-.4,5.4-3.1,4-7.1,7.1-11.6,9.6s-9.1,4.5-13.6,6.9q-1.6.7-1.3,2.9c.9-.2,2,0,2.7-.2,8-2.2,15.6-5.8,22.1-10.9,1.6-1.1,2.9-2.5,4.2-3.8,1.3,2,1.3,2.9.2,4.7-1.6,2.5-3.6,4.5-6,6.2-4.2,3.1-8.7,6.2-13.2,9.4-1.1.9-1.6,1.8-1.1,3.3,1.1-.2,2.2-.2,2.9-.7,3.3-1.8,6.7-3.6,10-5.4,3.6-2.2,6.9-4.7,9.8-8,1.6,2.5,1.6,3.3-.2,5.4-3.3,4.2-7.4,7.8-11.8,10.7-1.1.7-1.6,1.6-1.1,2.9,1.1.4,2.2.2,3.3-.4,4.2-2,8-4.7,11.2-8.3.4-.4.9-1.1,1.3-1.8,1.3,2,1.6,3.6.2,5.4-4.9,6.9-11.2,12.5-18.5,16.5-2,.9-2,1.1-1.8,3.1,1.1.4,2.2.2,3.3-.2,7.4-2.9,13.4-7.4,18.5-13.6.2-.2.4-.7.7-.9.2-.4.4-.7.9-1.1,1.8,1.8,2,3.3.9,5.4-2,3.6-4.7,6.7-7.8,9.1-1.3,1.3-2.9,2.7-4.7,3.8-1.1.9-1.6,1.8-.9,3.1.9.4,1.8.4,2.7-.2,3.3-2.2,6.9-4.7,10-7.1,1.6-1.1,2.9-2.7,4.2-4.2,1.1.9,1.1,2,.7,3.1-1.8,4.2-4.2,7.6-7.1,10.7-4.2,4.2-8.7,7.6-13.8,10.7q-1.3.9-1.3,2.9c1.1.7,2,.4,3.1,0,6.5-3.8,12.7-7.8,17.8-13.6,1.1-1.1,2-2.7,2.9-4,.4-.4.7-.9,1.3-1.3,0,.9.2,1.6,0,2.5Zm-39.7,11.3c.9,0,2,0,2.7-.4,4-1.8,8-3.8,12-5.8,1.8-.9,2.9-1.8,2-4-.6-.1-1.2-.2-1.7-.2-.2,0-.3,0-.5.1-1.3.4-2.7.9-4,1.6-3.1,1.8-6.5,3.8-9.6,5.6q-1.3.9-.9,3.1Zm11.7,4.5c-1.4,0-2.8.6-4.1,1.3-4,1.8-8,4-12,6-1.1.4-.9,1.6-.7,2.9,1.1-.2,2-.2,2.9-.4,2.5-.9,4.9-1.8,7.1-2.9,2.5-1.1,4.9-2.2,7.1-3.3,1.8-.9,1.6-1.1,1.1-3.3-.4-.3-.9-.3-1.4-.3Zm-5.8-31.1c.9.2,1.8.2,2.7,0,.9-.2.9-1.1.9-1.8,0-.4,0-.9-.2-1.6h-2.8v.1c-.9,0-1.3.4-1.3,1.3.2.7.2,1.8.7,2Zm.6-109.1c1.6,0,2.5-.4,2.5-1.8-.1-1.7-.3-2.2-1.9-2.2-1.8,0-2,.2-2.2,1.8,0,1.8.2,2,1.6,2.2Zm-7,121.4c0,1.6.4,2,2.2,2,1.6,0,2-.4,2-2.2.1-1.4-.1-1.9-1.5-1.9-.2,0-.4,0-.7.1-1.6,0-2,.2-2,2Zm-.7-111.1h2c0-1.1.2-2,0-2.7-.4-2-.9-4-1.3-5.8-.5-1.3-.6-1.7-1.5-1.6-.3,0-.7,0-1.2.1-.2.2-.2.4-.2.4.4,2.9.9,5.8,1.3,8.7,0,.4.4.7.9.9Zm1.9,88.1c-.9,0-1.8,0-2.5.2-2.7,1.1-5.1,2.5-7.6,3.8v2.5c1.3-.2,2.2-.2,3.3-.7,1.8-.7,3.6-1.6,5.6-2.2,1.8-.9,1.8-1.1,1.2-3.6Zm-5.1-51.6c-.3-.8-1-1-1.6-1-.7,0-1.1,0-1.6.2-2.9,1.1-5.8,2.5-8.7,3.6v2.2c.7,0,1.1.2,1.6,0,3.1-.7,6.2-1.6,9.4-2.5,1.1-.4.9-1.6.9-2.5Zm-1,30.9h-2.9v2.9c1.1-.2,2-.2,2.9-.2v-2.7Zm-7.3-69.2c.2.9.7,1.1,1.3,1.1h2c.7-3.5-1.1-6.2-2.2-9.3-.9,0-1.6.2-2.2.2,0,.4-.2.9,0,1.3.2,2.2.7,4.5,1.1,6.7Zm1.5,141.2c-1.6,0-1.8.2-1.8,1.8s.2,2,1.8,2,2-.4,2-2-.2-1.8-2-1.8Zm-2.7-108.4h-3.1c0,1.1.2,2,.2,2.9h2.9v-2.9Zm-8-32.6c0,3.6.7,6.7,1.1,10,.2,1.1,1.3,1.3,2.7,1.1,1.1,0,1.1-.9,1.1-1.8,0-3.3-1.6-6.2-2.5-9.4h-2.4v.1Zm-.4,45.3h3.1v-2.9h-3.1v2.9Zm.7-47.7c.9,0,1.3-.2,1.6-1.3.1-1.7-.4-2.5-1.7-2.6-.5,0-1,0-1.7.1v2.7c0,1.1.9,1.1,1.8,1.1Zm-8.3,46.9c-.5,0-1.1.1-1.8.1,0,1.3-.7,2.5.7,3.1.4.2,1.8.2,2.2-.2.4-.4.7-1.8.2-2.5-.3-.4-.7-.5-1.3-.5Zm-7.7-33.1c.4-1.8.2-3.6-.7-5.1-.3-1.3-.4-1.7-1.1-1.8-.4,0-1,.1-1.9.2-.4,1.6.2,3.1.4,4.7q.7,2.5,3.3,2Zm-18.4,6.1l-2.7-.1v2.5c1.1,0,2,0,2.7-.2v-2.2Zm-28.7-19.1c-.5,0-1.1.1-1.9.3v3.1h3.1c.4-2.5.2-3.4-1.2-3.4Zm-3.6,17.7c-.4,0-.9.1-1.4.2v2c.2,2.2.9,2.7,3.1,1.8.4-2.9,0-4-1.7-4Zm-11.2-21.4c1.8,0,2.2-.2,2.2-1.6,0-1.8-.2-2-1.8-2s-2,.2-2,1.6c-.2,1.6.2,2,1.6,2Zm-7-7.8c-.6-.2-1.2-.2-1.8-.2-2.3,0-3.1,1.1-2.4,3.3,3.3.7,4.5-.2,4.2-3.1Zm-147.8,135.7c-.8.1-1.1.7-1.4,2.1v.4c-.2,2.7-.2,5.4-.4,8,0,.2.2.7.2,1.1h2.5c.4-3.8,2.2-7.6,1.3-11.4-1-.1-1.7-.2-2.2-.2Zm-14.7,28c1.6,0,3.1,0,4.7-.9v-2.5c-1.8,0-3.1-.2-4.7-.2-2.9-.2-5.6,0-8.5-.2-4.7-.7-9.6-1.6-14.3-2.2-.8-.2-1.6-.4-2.3-.4-.5,0-.9.1-1.4.4v2.2c8.7,2.5,17.4,4.5,26.5,3.8Zm.3-35c-.6,0-1.1.1-1.7.4-.2.9-.7,2.2.4,2.9.7.2,1.8.2,2.5-.2,1.1-.4.4-1.6.4-2.9-.5-.1-1-.2-1.6-.2Zm-19.2,38.5c-1.8-.4-3.8-.9-5.8-1.6-4.2-1.1-8.7-2.2-13.2-3.1h-.5c-.7,0-1.4.1-2.2.1v2c.2.2.4.2.4.4,6.5,2.7,12.9,4.7,19.6,6,.7.2,1.6.2,2.2.2.4-.2.9-.4,1.1-.9.7-1.6,0-2.7-1.6-3.1Zm-7.3-41.2c-.5,0-.9.1-1.3.7-.2.4-.2,1.6,0,2,.7.9,1.8.7,2.9.2v-2.9c-.5.1-1.1,0-1.6,0Zm-7.8,31c.4,0,.9,0,1.6-.2v-2.4c-.4,0-.9-.2-1.3-.4-8.7-2-17.2-4.7-25.7-7.6-.9-.3-1.7-.3-2.9-.5q-.2,2.5,1.3,3.1c5.1,2,10.3,3.8,15.2,6,3.8,1.6,7.8,2.2,11.8,2Zm-11.8,2.9c-.9-.4-2-.9-3.1-1.1-2.9-.9-5.8-1.8-8.7-2.5-.9-.2-1.8-.2-2.9-.2,0,1.3-.4,2.2.7,2.9,4.2,2,8.5,3.8,12.9,4.5,1.8.2,2.5-.7,2.2-2.5-.2-.4-.7-.9-1.1-1.1Zm-7.5-51.1c-1.6,0-2,.4-2,2.2,0,1.6.2,1.8,1.8,2,1.8,0,2.2-.4,2.2-2.2,0-1.5-.5-2-2-2Zm-1.4,6.3c-1.8,0-2.2.2-2.2,1.3-.2,1.1-.2,2.5-.2,3.8,2.7.2,4.2-1.1,4-3.6,0-1.1-.7-1.5-1.6-1.5Zm-11.3-4.9c-.7.1-1,.5-1.6,1.8-1.1,3.6-2,6.9-3.1,10.5-.2.7,0,1.6,0,2.2q2.5.4,3.1-1.3c.9-2.5,2-4.9,2.9-7.4.7-1.8,1.1-3.6.7-5.6-1-.2-1.6-.3-2-.2Zm-36.5,31c-.8-.2-1.5-.3-2.3-.3-.5,0-.9.1-1.4.3v2c.4.2.9.4,1.3.4,11.8,3.8,23.6,7.1,35,11.6,1.1.4,2.2.4,3.3,0v-2.6c-2.7-.9-5.1-1.6-7.6-2.5-9.6-2.9-19-5.8-28.3-8.9Zm26-95.6c-.2-.1-.3-.2-.4-.2-.8,0-1.2.6-1.4,1.4,0,1.6.2,2.2,1.3,2.5,2.2.2,4.5.2,6.5-.2,0-.7.2-.9.2-1.3,0-.2-.2-.4-.2-1.3-2-.2-4-.7-6-.9Zm4.4-47.3c0-.4,0-.7-.2-1.1-.8-.3-1.8-.4-2.9-.4-3.4,0-7.8.6-10,1.6v2.5c4.7,0,8.7-1.1,12.9-1.3.2-.7.2-1.1.2-1.3Zm-5.6,111.5c-.8.1-1.2.7-1.5,2.1-.4,1.8-.9,3.8-1.1,5.6-.2.7,0,1.3,0,1.8q2.5.7,3.1-1.3c.4-1.1.9-2,1.3-3.1.7-1.6.7-3.1.2-4.7-.9-.3-1.5-.4-2-.4Zm-10.9-55c-.5,0-1,0-1.6.1q-.4,3.1,2.2,3.3c2.2.2,4.7.7,6.9.9h3.1c-.2-.9-.2-1.6-.2-2.5-3.4-.4-6.8-1.8-10.4-1.8Zm9.4-76.7h-2.9v2.7h2.9v-2.7Zm-2.8,98.6h-1.9c-.7,0-1.3.2-1.3,1.1,0,.7-.2,1.8.9,2,1.6.2,2.9.9,4.5.2.2-2.5-.2-3.1-2.2-3.3Zm-2.3-57.2h2.9v-2.6c-1.1,0-2,.2-2.9.2v2.4Zm1.1,47.4h-2.9v2.7h2.9v-2.7Zm-6.9,44.8v2.7c.9-.2,1.8-.2,2.7-.2,0-.9,0-1.6-.2-2.5h-2.5Zm-21,26.6c-1.6,0-1.8.2-2,1.8,0,1.6.4,2,2,2s2-.2,2-1.8c0-1.8-.5-2-2-2Zm-.9-31.6c-.8.1-.9.6-1.3,2.2-.2.7-.4,1.6-.4,2.2-.2,1.3-.9,2.9-.2,4.5h2.2c.9-2.9,2.7-5.4,2-8.5-1.2-.3-1.8-.5-2.3-.4Zm-40.2,23.3h-2v2.5c.7,0,1.3.2,1.8.2,5.1.9,10,1.6,15.2,2.5,5.1,1.1,10.5,2.2,15.8,3.3,1.3.4,2.7.9,3.8,0v-2.5c-.2-.2-.7-.2-.9-.4-10.9-2.7-22.3-4.5-33.7-5.6Zm32.9-35c-.3,0-.4,0-.6-.1-1.2,0-1.9.4-2.1,1.4-.4,1.8-.9,3.6-1.3,5.1,0,.9.2,1.6.2,2.5h2.7c1.1-2.2,2-4.5,2.2-6.9,0-.9,0-1.8-1.1-2Zm-4.5,11.2c-1.6.2-2,.7-2,2.5,0,1.3.4,1.8,2,1.8,1.8,0,2-.4,2-2.2,0-1.9-.2-2.1-2-2.1Zm-1.8,6c-1.6,0-1.8.2-1.8,1.8,0,1.3.4,1.8,2,1.6,1.3,0,1.8-.2,1.8-1.8-.2-1.4-.5-1.6-2-1.6Zm-8.7-6.2h2.5v-2.5h-2.7c0,1.1,0,1.8.2,2.5Zm-9.8-55v-2.4c-5.4-.7-10.7-2-16.5-2.5v2.2c4.2,1.3,14.5,3.1,16.5,2.7Zm-2.4,5.9c-.4,0-.9,0-1.2.1-1.1.7-.7,1.8-.4,3.1,1.1,0,2.5.7,2.9-.4.4-.7.2-2-.2-2.5-.3-.1-.7-.2-1.1-.3Zm-8.6,21.8c-.2,1.1-.4,2,.7,2.5,1.8.4,3.6.9,5.6.4v-2.7c-1.4-.1-2.7-.4-4-.5-.8,0-1.5,0-2.3.3Zm3.1,42.6c.7-1.3,0-2.5-1.3-2.7-2.7-.2-5.1-.7-7.8-.7-2-.1-4.2-.1-6.7-.1v2c4.7.9,8.7,1.6,12.9,2.2h2.2c.2,0,.7-.4.7-.7Zm-3.1-80.7c1.1-.7.7-1.8.2-2.9h-3.1c0,1.1-.4,2.2.4,2.9.7.2,2,.2,2.5,0Zm-4.9,88.3c-1.8,0-2,.2-2,2,0,1.3.2,1.8,2,1.8,1.6,0,1.8-.4,1.8-2s-.2-1.8-1.8-1.8Zm-.8-29.2c.7,0,1.1-.4,1.1-1.1.4-1.8,0-2.5-1.8-2.5-3.1-.2-6.5-.2-9.6-.2-1.6,0-3.1.2-4.7.4v1.8c4.7.7,8.9,1.1,13.4,1.6.4.2,1.1,0,1.6,0Zm-8.1,31.8h2.9v-2.9c-.8-.1-1.4-.2-1.9-.2-1.4,0-1.5,1-1,3.1Zm-7.7-14.7l-5.4.1v3.1c2,0,3.6.2,5.4.2,1.1,0,1.3-.9,1.3-1.6,0-.9-.2-1.8-1.3-1.8Z"/>
    <g>
      <g>
        <path class="cls-6" d="m404.39,118.96h-28.08v1.28h-3.83v1.28h-1.28v1.28h-1.28v1.28h-1.28v1.28h-1.28v2.55h-1.28v7.66h1.28v2.55h1.28v1.28h1.28v1.28h2.55v1.28h3.83v1.28h7.66v-1.28h3.83v-1.28h2.55v-1.28h1.28v-1.28h1.28v-3.83h1.28v-2.55h-1.28v-1.28h-1.28v-1.28h-1.28v-1.28h-3.83v3.83h-1.28v2.55h-2.55v1.28h-5.11v-1.28h-1.28v-1.28h-1.28v-3.83h1.28v-2.55h1.28v-1.28h3.83v-1.28h8.93v2.55h1.28v1.28h1.28v1.28h1.28v1.28h1.28v6.38h-1.28v2.55h-1.28v1.28h-1.28v1.28h-1.28v14.04h-1.28v6.38h1.28v1.28h1.28v-1.28h1.28v1.28h1.28v-1.28h1.28v1.28h1.28v-1.28h1.28v1.28h1.28v-1.28h1.28v1.28h1.28v-1.28h2.55v-1.28h-1.28v-1.28h1.28v-38.29h1.28v-1.28h1.28v-1.28h-2.55Zm-6.38,38.29h-1.28v-1.28h1.28v1.28Zm-3.83-1.28h1.28v1.28h-1.28v-1.28Zm6.38,1.28h-1.28v-1.28h1.28v1.28Zm-7.66-1.28v1.28h-1.28v-1.28h1.28Zm-2.55,5.11v-1.28h1.28v1.28h-1.28Zm2.55,0v-1.28h1.28v1.28h-1.28Zm2.55,0v-1.28h1.28v1.28h-1.28Zm2.55,0v-1.28h1.28v1.28h-1.28Zm3.83,0h-1.28v-1.28h1.28v1.28Zm1.28-3.83h-1.28v-1.28h1.28v1.28Z"/>
        <path class="cls-6" d="m506.5,126.61h-15.32v1.28h1.28v1.28h-1.28v2.55h-1.28v2.55h-1.28v2.55h-1.28v2.55h-1.28v2.55h-1.28v2.55h-1.28v2.55h-1.28v2.55h-1.28v2.55h-1.28v2.55h-1.28v-5.11h-1.28v-5.11h-1.28v-2.55h-1.28v-2.55h-1.28v-2.55h-1.28v-2.55h-1.28v-1.28h-1.28v-1.28h-1.28v-1.28h-2.55v-1.28h-2.55v-1.28h-3.83v-1.28h-6.38v1.28h1.28v1.28h1.28v26.8h1.28v1.28h-1.28v5.11h1.28v1.28h1.28v-1.28h1.28v1.28h1.28v-2.55h-1.28v-1.28h1.28v-21.7h1.28v3.83h1.28v3.83h1.28v5.11h1.28v3.83h1.28v2.55h1.28v-1.28h1.28v1.28h-1.28v2.55h2.55v1.28h-1.28v1.28h2.55v1.28h1.28v-1.28h1.28v1.28h1.28v-1.28h1.28v1.28h1.28v-1.28h1.28v1.28h1.28v-2.55h-1.28v-1.28h2.55v-2.55h-1.28v-1.28h1.28v1.28h1.28v-2.55h1.28v-2.55h1.28v-2.55h1.28v-2.55h1.28v-2.55h1.28v-3.83h1.28v-2.55h1.28v-2.55h1.28v20.42h1.28v1.28h-1.28v5.11h1.28v1.28h1.28v-1.28h1.28v1.28h1.28v-1.28h1.28v1.28h1.28v-1.28h1.28v1.28h1.28v-1.28h1.28v1.28h1.28v-2.55h-1.28v-1.28h1.28v-31.91h1.28v-1.28h-1.28Zm-7.66,29.36h1.28v1.28h-1.28v-1.28Zm3.83,1.28h-1.28v-1.28h1.28v1.28Zm-29.36-1.28h1.28v1.28h-1.28v-1.28Zm3.83,1.28h-1.28v-1.28h1.28v1.28Zm-19.15,3.83h-1.28v-1.28h1.28v1.28Zm1.28-3.83h-1.28v-1.28h1.28v1.28Zm11.49-1.28h1.28v1.28h-1.28v-1.28Zm1.28,5.11v-1.28h1.28v1.28h-1.28Zm2.55,0v-1.28h1.28v1.28h-1.28Zm3.83,0h-1.28v-1.28h1.28v1.28Zm1.28-3.83h-1.28v-1.28h1.28v1.28Zm16.59-1.28h1.28v1.28h-1.28v-1.28Zm-1.28,5.11v-1.28h1.28v1.28h-1.28Zm2.55,0v-1.28h1.28v1.28h-1.28Zm2.55,0v-1.28h1.28v1.28h-1.28Zm3.83,0h-1.28v-1.28h1.28v1.28Zm1.28-3.83h-1.28v-1.28h1.28v1.28Z"/>
        <polygon class="cls-6" points="415.88 155.97 414.6 155.97 414.6 157.25 414.6 158.52 414.6 159.8 415.88 159.8 415.88 158.52 417.16 158.52 417.16 157.25 415.88 157.25 415.88 155.97"/>
        <path class="cls-6" d="m433.75,162.35v1.28h1.28v-1.28h1.28v1.28h1.28v-1.28h1.28v1.28h1.28v-1.28h1.28v1.28h1.28v-1.28h1.28v-2.55h-1.28v1.28h-1.28v-1.28h1.28v-6.38h-1.28v-5.11h-1.28v-5.11h-1.28v-5.11h-1.28v-5.11h-1.28v-5.11h-1.28v-1.28h-15.32v1.28h2.55v2.55h-1.28v5.11h-1.28v5.11h-1.28v5.11h-1.28v5.11h-1.28v5.11h1.28v1.28h1.28v-1.28h1.28v-1.28h1.28v-5.11h1.28v-5.11h1.28v-5.11h1.28v-1.28h1.28v5.11h1.28v5.11h1.28v5.11h1.28v2.55h1.28v1.28h-1.28v1.28h-1.28v-1.28h-7.66v1.28h-2.55v1.28h1.28v1.28h-1.28v-1.28h-1.28v1.28h-1.28v2.55h1.28v-1.28h1.28v1.28h1.28v-1.28h3.83v-2.55h1.28v1.28h1.28v-1.28h1.28v1.28h-1.28v1.28h5.11v1.28h1.28v-1.28h1.28Zm0-1.28v-1.28h1.28v1.28h-1.28Zm5.11-3.83h-1.28v-1.28h1.28v1.28Zm-3.83-1.28h1.28v1.28h-1.28v-1.28Zm1.28,5.11v-1.28h1.28v1.28h-1.28Zm3.83,0h-1.28v-1.28h1.28v1.28Zm1.28-3.83h-1.28v-1.28h1.28v1.28Zm-8.93-1.28h1.28v1.28h-1.28v-1.28Zm-10.21,5.11h-1.28v-1.28h1.28v1.28Zm6.38,0v-1.28h1.28v1.28h-1.28Zm2.55,0v-1.28h1.28v1.28h-1.28Z"/>
        <path class="cls-6" d="m371.21,162.35h1.28v1.28h1.28v-1.28h1.28v1.28h1.28v-1.28h1.28v-3.83h1.28v-2.55h1.28v-3.83h-7.66v1.28h-1.28v1.28h-1.28v2.55h-1.28v5.11h1.28v1.28h1.28v-1.28Zm1.28-1.28v-1.28h1.28v1.28h-1.28Zm1.28-5.11h1.28v1.28h-1.28v-1.28Zm2.55,5.11h-1.28v-1.28h1.28v1.28Zm1.28-3.83h-1.28v-1.28h1.28v1.28Zm-6.38-1.28h1.28v1.28h-1.28v-1.28Zm-1.28,3.83h1.28v1.28h-1.28v-1.28Z"/>
        <rect class="cls-6" x="368.65" y="163.63" width="1.28" height="1.28"/>
        <rect class="cls-6" x="371.21" y="163.63" width="1.28" height="1.28"/>
        <rect class="cls-6" x="373.76" y="163.63" width="1.28" height="1.28"/>
        <rect class="cls-6" x="376.31" y="163.63" width="1.28" height="1.28"/>
        <rect class="cls-6" x="389.08" y="163.63" width="1.28" height="1.28"/>
        <rect class="cls-6" x="391.63" y="163.63" width="1.28" height="1.28"/>
        <rect class="cls-6" x="394.18" y="163.63" width="1.28" height="1.28"/>
        <rect class="cls-6" x="396.73" y="163.63" width="1.28" height="1.28"/>
        <rect class="cls-6" x="399.29" y="163.63" width="1.28" height="1.28"/>
        <rect class="cls-6" x="401.84" y="163.63" width="1.28" height="1.28"/>
        <rect class="cls-6" x="414.6" y="163.63" width="1.28" height="1.28"/>
        <rect class="cls-6" x="417.16" y="163.63" width="1.28" height="1.28"/>
        <rect class="cls-6" x="419.71" y="163.63" width="1.28" height="1.28"/>
        <rect class="cls-6" x="432.47" y="163.63" width="1.28" height="1.28"/>
        <rect class="cls-6" x="435.03" y="163.63" width="1.28" height="1.28"/>
        <rect class="cls-6" x="437.58" y="163.63" width="1.28" height="1.28"/>
        <rect class="cls-6" x="440.13" y="163.63" width="1.28" height="1.28"/>
        <rect class="cls-6" x="442.68" y="163.63" width="1.28" height="1.28"/>
        <rect class="cls-6" x="455.45" y="163.63" width="1.28" height="1.28"/>
        <rect class="cls-6" x="458" y="163.63" width="1.28" height="1.28"/>
        <rect class="cls-6" x="473.32" y="163.63" width="1.28" height="1.28"/>
        <rect class="cls-6" x="475.87" y="163.63" width="1.28" height="1.28"/>
        <rect class="cls-6" x="478.42" y="163.63" width="1.28" height="1.28"/>
        <rect class="cls-6" x="480.98" y="163.63" width="1.28" height="1.28"/>
        <rect class="cls-6" x="493.74" y="163.63" width="1.28" height="1.28"/>
        <rect class="cls-6" x="496.29" y="163.63" width="1.28" height="1.28"/>
        <rect class="cls-6" x="498.85" y="163.63" width="1.28" height="1.28"/>
        <rect class="cls-6" x="501.4" y="163.63" width="1.28" height="1.28"/>
        <rect class="cls-6" x="503.95" y="163.63" width="1.28" height="1.28"/>
        <rect class="cls-6" x="369.93" y="164.91" width="1.28" height="1.28"/>
        <rect class="cls-6" x="372.48" y="164.91" width="1.28" height="1.28"/>
        <rect class="cls-6" x="375.04" y="164.91" width="1.28" height="1.28"/>
        <rect class="cls-6" x="390.35" y="164.91" width="1.28" height="1.28"/>
        <rect class="cls-6" x="392.91" y="164.91" width="1.28" height="1.28"/>
        <rect class="cls-6" x="395.46" y="164.91" width="1.28" height="1.28"/>
        <rect class="cls-6" x="398.01" y="164.91" width="1.28" height="1.28"/>
        <rect class="cls-6" x="400.56" y="164.91" width="1.28" height="1.28"/>
        <rect class="cls-6" x="415.88" y="164.91" width="1.28" height="1.28"/>
        <rect class="cls-6" x="418.43" y="164.91" width="1.28" height="1.28"/>
        <rect class="cls-6" x="433.75" y="164.91" width="1.28" height="1.28"/>
        <rect class="cls-6" x="436.3" y="164.91" width="1.28" height="1.28"/>
        <rect class="cls-6" x="438.86" y="164.91" width="1.28" height="1.28"/>
        <rect class="cls-6" x="441.41" y="164.91" width="1.28" height="1.28"/>
        <rect class="cls-6" x="443.96" y="164.91" width="1.28" height="1.28"/>
        <rect class="cls-6" x="456.73" y="164.91" width="1.28" height="1.28"/>
        <rect class="cls-6" x="459.28" y="164.91" width="1.28" height="1.28"/>
        <rect class="cls-6" x="474.59" y="164.91" width="1.28" height="1.28"/>
        <rect class="cls-6" x="477.15" y="164.91" width="1.28" height="1.28"/>
        <rect class="cls-6" x="479.7" y="164.91" width="1.28" height="1.28"/>
        <rect class="cls-6" x="482.25" y="164.91" width="1.28" height="1.28"/>
        <rect class="cls-6" x="495.02" y="164.91" width="1.28" height="1.28"/>
        <rect class="cls-6" x="497.57" y="164.91" width="1.28" height="1.28"/>
        <rect class="cls-6" x="500.12" y="164.91" width="1.28" height="1.28"/>
        <rect class="cls-6" x="502.68" y="164.91" width="1.28" height="1.28"/>
        <rect class="cls-6" x="505.23" y="164.91" width="1.28" height="1.28"/>
        <rect class="cls-6" x="368.65" y="166.18" width="1.28" height="1.28"/>
        <rect class="cls-6" x="371.21" y="166.18" width="1.28" height="1.28"/>
        <rect class="cls-6" x="373.76" y="166.18" width="1.28" height="1.28"/>
        <rect class="cls-6" x="376.31" y="166.18" width="1.28" height="1.28"/>
        <rect class="cls-6" x="389.08" y="166.18" width="1.28" height="1.28"/>
        <rect class="cls-6" x="391.63" y="166.18" width="1.28" height="1.28"/>
        <rect class="cls-6" x="394.18" y="166.18" width="1.28" height="1.28"/>
        <rect class="cls-6" x="396.73" y="166.18" width="1.28" height="1.28"/>
        <rect class="cls-6" x="399.29" y="166.18" width="1.28" height="1.28"/>
        <rect class="cls-6" x="414.6" y="166.18" width="1.28" height="1.28"/>
        <rect class="cls-6" x="417.16" y="166.18" width="1.28" height="1.28"/>
        <rect class="cls-6" x="419.71" y="166.18" width="1.28" height="1.28"/>
        <rect class="cls-6" x="424.82" y="166.18" width="1.28" height="1.28"/>
        <rect class="cls-6" x="427.37" y="166.18" width="1.28" height="1.28"/>
        <rect class="cls-6" x="432.47" y="166.18" width="1.28" height="1.28"/>
        <rect class="cls-6" x="435.03" y="166.18" width="1.28" height="1.28"/>
        <rect class="cls-6" x="437.58" y="166.18" width="1.28" height="1.28"/>
        <rect class="cls-6" x="440.13" y="166.18" width="1.28" height="1.28"/>
        <rect class="cls-6" x="442.68" y="166.18" width="1.28" height="1.28"/>
        <rect class="cls-6" x="455.45" y="166.18" width="1.28" height="1.28"/>
        <rect class="cls-6" x="458" y="166.18" width="1.28" height="1.28"/>
        <rect class="cls-6" x="475.87" y="166.18" width="1.28" height="1.28"/>
        <rect class="cls-6" x="478.42" y="166.18" width="1.28" height="1.28"/>
        <rect class="cls-6" x="480.98" y="166.18" width="1.28" height="1.28"/>
        <rect class="cls-6" x="483.53" y="166.18" width="1.28" height="1.28"/>
        <rect class="cls-6" x="493.74" y="166.18" width="1.28" height="1.28"/>
        <rect class="cls-6" x="496.29" y="166.18" width="1.28" height="1.28"/>
        <rect class="cls-6" x="498.85" y="166.18" width="1.28" height="1.28"/>
        <rect class="cls-6" x="501.4" y="166.18" width="1.28" height="1.28"/>
        <rect class="cls-6" x="503.95" y="166.18" width="1.28" height="1.28"/>
        <rect class="cls-6" x="369.93" y="167.46" width="1.28" height="1.28"/>
        <rect class="cls-6" x="372.48" y="167.46" width="1.28" height="1.28"/>
        <rect class="cls-6" x="375.04" y="167.46" width="1.28" height="1.28"/>
        <rect class="cls-6" x="387.8" y="167.46" width="1.28" height="1.28"/>
        <rect class="cls-6" x="390.35" y="167.46" width="1.28" height="1.28"/>
        <rect class="cls-6" x="392.91" y="167.46" width="1.28" height="1.28"/>
        <rect class="cls-6" x="395.46" y="167.46" width="1.28" height="1.28"/>
        <rect class="cls-6" x="398.01" y="167.46" width="1.28" height="1.28"/>
        <rect class="cls-6" x="400.56" y="167.46" width="1.28" height="1.28"/>
        <rect class="cls-6" x="410.77" y="167.46" width="1.28" height="1.28"/>
        <rect class="cls-6" x="415.88" y="167.46" width="1.28" height="1.28"/>
        <rect class="cls-6" x="418.43" y="167.46" width="1.28" height="1.28"/>
        <rect class="cls-6" x="420.99" y="167.46" width="1.28" height="1.28"/>
        <rect class="cls-6" x="423.54" y="167.46" width="1.28" height="1.28"/>
        <rect class="cls-6" x="426.09" y="167.46" width="1.28" height="1.28"/>
        <rect class="cls-6" x="433.75" y="167.46" width="1.28" height="1.28"/>
        <rect class="cls-6" x="436.3" y="167.46" width="1.28" height="1.28"/>
        <rect class="cls-6" x="438.86" y="167.46" width="1.28" height="1.28"/>
        <rect class="cls-6" x="441.41" y="167.46" width="1.28" height="1.28"/>
        <rect class="cls-6" x="443.96" y="167.46" width="1.28" height="1.28"/>
        <rect class="cls-6" x="456.73" y="167.46" width="1.28" height="1.28"/>
        <rect class="cls-6" x="459.28" y="167.46" width="1.28" height="1.28"/>
        <rect class="cls-6" x="477.15" y="167.46" width="1.28" height="1.28"/>
        <rect class="cls-6" x="479.7" y="167.46" width="1.28" height="1.28"/>
        <rect class="cls-6" x="482.25" y="167.46" width="1.28" height="1.28"/>
        <rect class="cls-6" x="495.02" y="167.46" width="1.28" height="1.28"/>
        <rect class="cls-6" x="497.57" y="167.46" width="1.28" height="1.28"/>
        <rect class="cls-6" x="500.12" y="167.46" width="1.28" height="1.28"/>
        <rect class="cls-6" x="502.68" y="167.46" width="1.28" height="1.28"/>
        <rect class="cls-6" x="505.23" y="167.46" width="1.28" height="1.28"/>
        <rect class="cls-6" x="371.21" y="168.74" width="1.28" height="1.28"/>
        <rect class="cls-6" x="373.76" y="168.74" width="1.28" height="1.28"/>
        <polygon class="cls-6" points="377.59 170.01 377.59 171.29 378.86 171.29 378.86 170.01 378.86 168.74 377.59 168.74 376.31 168.74 376.31 170.01 377.59 170.01"/>
        <rect class="cls-6" x="389.08" y="168.74" width="1.28" height="1.28"/>
        <rect class="cls-6" x="391.63" y="168.74" width="1.28" height="1.28"/>
        <rect class="cls-6" x="394.18" y="168.74" width="1.28" height="1.28"/>
        <rect class="cls-6" x="396.73" y="168.74" width="1.28" height="1.28"/>
        <rect class="cls-6" x="399.29" y="168.74" width="1.28" height="1.28"/>
        <rect class="cls-6" x="414.6" y="168.74" width="1.28" height="1.28"/>
        <rect class="cls-6" x="417.16" y="168.74" width="1.28" height="1.28"/>
        <rect class="cls-6" x="419.71" y="168.74" width="1.28" height="1.28"/>
        <rect class="cls-6" x="422.26" y="168.74" width="1.28" height="1.28"/>
        <rect class="cls-6" x="424.82" y="168.74" width="1.28" height="1.28"/>
        <rect class="cls-6" x="427.37" y="168.74" width="1.28" height="1.28"/>
        <rect class="cls-6" x="435.03" y="168.74" width="1.28" height="1.28"/>
        <rect class="cls-6" x="437.58" y="168.74" width="1.28" height="1.28"/>
        <rect class="cls-6" x="440.13" y="168.74" width="1.28" height="1.28"/>
        <rect class="cls-6" x="442.68" y="168.74" width="1.28" height="1.28"/>
        <rect class="cls-6" x="455.45" y="168.74" width="1.28" height="1.28"/>
        <rect class="cls-6" x="458" y="168.74" width="1.28" height="1.28"/>
        <rect class="cls-6" x="493.74" y="168.74" width="1.28" height="1.28"/>
        <rect class="cls-6" x="496.29" y="168.74" width="1.28" height="1.28"/>
        <rect class="cls-6" x="498.85" y="168.74" width="1.28" height="1.28"/>
        <rect class="cls-6" x="501.4" y="168.74" width="1.28" height="1.28"/>
        <rect class="cls-6" x="503.95" y="168.74" width="1.28" height="1.28"/>
        <rect class="cls-6" x="372.48" y="170.01" width="1.28" height="1.28"/>
        <rect class="cls-6" x="375.04" y="170.01" width="1.28" height="1.28"/>
        <polygon class="cls-6" points="389.08 171.29 389.08 170.01 387.8 170.01 386.52 170.01 386.52 171.29 386.52 172.56 387.8 172.56 387.8 171.29 389.08 171.29"/>
        <rect class="cls-6" x="390.35" y="170.01" width="1.28" height="1.28"/>
        <rect class="cls-6" x="392.91" y="170.01" width="1.28" height="1.28"/>
        <rect class="cls-6" x="395.46" y="170.01" width="1.28" height="1.28"/>
        <rect class="cls-6" x="398.01" y="170.01" width="1.28" height="1.28"/>
        <rect class="cls-6" x="412.05" y="170.01" width="1.28" height="1.28"/>
        <rect class="cls-6" x="415.88" y="170.01" width="1.28" height="1.28"/>
        <rect class="cls-6" x="418.43" y="170.01" width="1.28" height="1.28"/>
        <rect class="cls-6" x="420.99" y="170.01" width="1.28" height="1.28"/>
        <rect class="cls-6" x="423.54" y="170.01" width="1.28" height="1.28"/>
        <rect class="cls-6" x="426.09" y="170.01" width="1.28" height="1.28"/>
        <rect class="cls-6" x="433.75" y="170.01" width="1.28" height="1.28"/>
        <rect class="cls-6" x="436.3" y="170.01" width="1.28" height="1.28"/>
        <rect class="cls-6" x="438.86" y="170.01" width="1.28" height="1.28"/>
        <rect class="cls-6" x="441.41" y="170.01" width="1.28" height="1.28"/>
        <rect class="cls-6" x="443.96" y="170.01" width="1.28" height="1.28"/>
        <rect class="cls-6" x="456.73" y="170.01" width="1.28" height="1.28"/>
        <rect class="cls-6" x="459.28" y="170.01" width="1.28" height="1.28"/>
        <rect class="cls-6" x="495.02" y="170.01" width="1.28" height="1.28"/>
        <rect class="cls-6" x="497.57" y="170.01" width="1.28" height="1.28"/>
        <rect class="cls-6" x="500.12" y="170.01" width="1.28" height="1.28"/>
        <rect class="cls-6" x="502.68" y="170.01" width="1.28" height="1.28"/>
        <rect class="cls-6" x="505.23" y="170.01" width="1.28" height="1.28"/>
        <rect class="cls-6" x="371.21" y="171.29" width="1.28" height="1.28"/>
        <rect class="cls-6" x="373.76" y="171.29" width="1.28" height="1.28"/>
        <rect class="cls-6" x="376.31" y="171.29" width="1.28" height="1.28"/>
        <rect class="cls-6" x="378.86" y="171.29" width="1.28" height="1.28"/>
        <rect class="cls-6" x="383.97" y="171.29" width="1.28" height="1.28"/>
        <rect class="cls-6" x="389.08" y="171.29" width="1.28" height="1.28"/>
        <rect class="cls-6" x="391.63" y="171.29" width="1.28" height="1.28"/>
        <rect class="cls-6" x="394.18" y="171.29" width="1.28" height="1.28"/>
        <rect class="cls-6" x="396.73" y="171.29" width="1.28" height="1.28"/>
        <rect class="cls-6" x="410.77" y="171.29" width="1.28" height="1.28"/>
        <rect class="cls-6" x="417.16" y="171.29" width="1.28" height="1.28"/>
        <rect class="cls-6" x="419.71" y="171.29" width="1.28" height="1.28"/>
        <rect class="cls-6" x="422.26" y="171.29" width="1.28" height="1.28"/>
        <rect class="cls-6" x="424.82" y="171.29" width="1.28" height="1.28"/>
        <rect class="cls-6" x="427.37" y="171.29" width="1.28" height="1.28"/>
        <rect class="cls-6" x="435.03" y="171.29" width="1.28" height="1.28"/>
        <rect class="cls-6" x="437.58" y="171.29" width="1.28" height="1.28"/>
        <rect class="cls-6" x="440.13" y="171.29" width="1.28" height="1.28"/>
        <rect class="cls-6" x="442.68" y="171.29" width="1.28" height="1.28"/>
        <rect class="cls-6" x="445.24" y="171.29" width="1.28" height="1.28"/>
        <rect class="cls-6" x="455.45" y="171.29" width="1.28" height="1.28"/>
        <rect class="cls-6" x="458" y="171.29" width="1.28" height="1.28"/>
        <rect class="cls-6" x="493.74" y="171.29" width="1.28" height="1.28"/>
        <rect class="cls-6" x="496.29" y="171.29" width="1.28" height="1.28"/>
        <rect class="cls-6" x="498.85" y="171.29" width="1.28" height="1.28"/>
        <rect class="cls-6" x="501.4" y="171.29" width="1.28" height="1.28"/>
        <rect class="cls-6" x="503.95" y="171.29" width="1.28" height="1.28"/>
        <rect class="cls-6" x="372.48" y="172.56" width="1.28" height="1.28"/>
        <rect class="cls-6" x="375.04" y="172.56" width="1.28" height="1.28"/>
        <rect class="cls-6" x="377.59" y="172.56" width="1.28" height="1.28"/>
        <rect class="cls-6" x="380.14" y="172.56" width="1.28" height="1.28"/>
        <rect class="cls-6" x="382.69" y="172.56" width="1.28" height="1.28"/>
        <rect class="cls-6" x="385.25" y="172.56" width="1.28" height="1.28"/>
        <rect class="cls-6" x="387.8" y="172.56" width="1.28" height="1.28"/>
        <rect class="cls-6" x="390.35" y="172.56" width="1.28" height="1.28"/>
        <rect class="cls-6" x="392.91" y="172.56" width="1.28" height="1.28"/>
        <rect class="cls-6" x="395.46" y="172.56" width="1.28" height="1.28"/>
        <rect class="cls-6" x="412.05" y="172.56" width="1.28" height="1.28"/>
        <rect class="cls-6" x="418.43" y="172.56" width="1.28" height="1.28"/>
        <polygon class="cls-6" points="422.26 172.56 420.99 172.56 420.99 173.84 419.71 173.84 419.71 175.12 420.99 175.12 422.26 175.12 423.54 175.12 423.54 173.84 422.26 173.84 422.26 172.56"/>
        <rect class="cls-6" x="423.54" y="172.56" width="1.28" height="1.28"/>
        <rect class="cls-6" x="426.09" y="172.56" width="1.28" height="1.28"/>
        <rect class="cls-6" x="433.75" y="172.56" width="1.28" height="1.28"/>
        <rect class="cls-6" x="436.3" y="172.56" width="1.28" height="1.28"/>
        <rect class="cls-6" x="438.86" y="172.56" width="1.28" height="1.28"/>
        <rect class="cls-6" x="441.41" y="172.56" width="1.28" height="1.28"/>
        <rect class="cls-6" x="443.96" y="172.56" width="1.28" height="1.28"/>
        <rect class="cls-6" x="456.73" y="172.56" width="1.28" height="1.28"/>
        <rect class="cls-6" x="459.28" y="172.56" width="1.28" height="1.28"/>
        <rect class="cls-6" x="495.02" y="172.56" width="1.28" height="1.28"/>
        <rect class="cls-6" x="497.57" y="172.56" width="1.28" height="1.28"/>
        <rect class="cls-6" x="500.12" y="172.56" width="1.28" height="1.28"/>
        <rect class="cls-6" x="502.68" y="172.56" width="1.28" height="1.28"/>
        <rect class="cls-6" x="505.23" y="172.56" width="1.28" height="1.28"/>
      </g>
      <g>
        <rect class="cls-7" x="456.73" y="164.91" width="1.28" height="1.28"/>
        <rect class="cls-7" x="456.73" y="167.46" width="1.28" height="1.28"/>
        <rect class="cls-7" x="456.73" y="170.01" width="1.28" height="1.28"/>
        <rect class="cls-7" x="455.45" y="163.63" width="1.28" height="1.28"/>
        <rect class="cls-7" x="455.45" y="171.29" width="1.28" height="1.28"/>
        <rect class="cls-7" x="456.73" y="172.56" width="1.28" height="1.28"/>
        <rect class="cls-7" x="458" y="171.29" width="1.28" height="1.28"/>
        <rect class="cls-7" x="455.45" y="166.18" width="1.28" height="1.28"/>
        <rect class="cls-7" x="455.45" y="168.74" width="1.28" height="1.28"/>
        <rect class="cls-7" x="479.7" y="164.91" width="1.28" height="1.28"/>
        <rect class="cls-7" x="478.42" y="163.63" width="1.28" height="1.28"/>
        <rect class="cls-7" x="477.15" y="164.91" width="1.28" height="1.28"/>
        <rect class="cls-7" x="459.28" y="172.56" width="1.28" height="1.28"/>
        <rect class="cls-7" x="458" y="168.74" width="1.28" height="1.28"/>
        <rect class="cls-7" x="475.87" y="163.63" width="1.28" height="1.28"/>
        <rect class="cls-7" x="458" y="166.18" width="1.28" height="1.28"/>
        <rect class="cls-7" x="458" y="163.63" width="1.28" height="1.28"/>
        <rect class="cls-7" x="473.32" y="163.63" width="1.28" height="1.28"/>
        <rect class="cls-7" x="493.74" y="168.74" width="1.28" height="1.28"/>
        <rect class="cls-7" x="474.59" y="164.91" width="1.28" height="1.28"/>
        <rect class="cls-7" x="497.57" y="172.56" width="1.28" height="1.28"/>
        <rect class="cls-7" x="505.23" y="164.91" width="1.28" height="1.28"/>
        <rect class="cls-7" x="493.74" y="171.29" width="1.28" height="1.28"/>
        <rect class="cls-7" x="500.12" y="172.56" width="1.28" height="1.28"/>
        <rect class="cls-7" x="505.23" y="170.01" width="1.28" height="1.28"/>
        <rect class="cls-7" x="505.23" y="167.46" width="1.28" height="1.28"/>
        <rect class="cls-7" x="502.68" y="172.56" width="1.28" height="1.28"/>
        <rect class="cls-7" x="505.23" y="172.56" width="1.28" height="1.28"/>
        <rect class="cls-7" x="459.28" y="170.01" width="1.28" height="1.28"/>
        <rect class="cls-7" x="493.74" y="166.18" width="1.28" height="1.28"/>
        <rect class="cls-7" x="459.28" y="164.91" width="1.28" height="1.28"/>
        <rect class="cls-7" x="459.28" y="167.46" width="1.28" height="1.28"/>
        <rect class="cls-7" x="479.7" y="167.46" width="1.28" height="1.28"/>
        <rect class="cls-7" x="477.15" y="167.46" width="1.28" height="1.28"/>
        <rect class="cls-7" x="493.74" y="163.63" width="1.28" height="1.28"/>
        <rect class="cls-7" x="483.53" y="166.18" width="1.28" height="1.28"/>
        <rect class="cls-7" x="482.25" y="167.46" width="1.28" height="1.28"/>
        <rect class="cls-7" x="495.02" y="172.56" width="1.28" height="1.28"/>
        <rect class="cls-7" x="495.02" y="170.01" width="1.28" height="1.28"/>
        <rect class="cls-7" x="495.02" y="167.46" width="1.28" height="1.28"/>
        <rect class="cls-7" x="496.29" y="171.29" width="1.28" height="1.28"/>
        <rect class="cls-7" x="495.02" y="164.91" width="1.28" height="1.28"/>
        <rect class="cls-7" x="502.68" y="164.91" width="1.28" height="1.28"/>
        <rect class="cls-7" x="498.85" y="171.29" width="1.28" height="1.28"/>
        <rect class="cls-7" x="496.29" y="163.63" width="1.28" height="1.28"/>
        <rect class="cls-7" x="501.4" y="163.63" width="1.28" height="1.28"/>
        <rect class="cls-7" x="498.85" y="163.63" width="1.28" height="1.28"/>
        <path class="cls-7" d="m505.23,126.61h-14.04v1.28h1.28v1.28h-1.28v2.55h-1.28v2.55h-1.28v2.55h-1.28v2.55h-1.28v2.55h-1.28v2.55h-1.28v2.55h-1.28v2.55h-1.28v2.55h-1.28v2.55h-1.28v-5.11h-1.28v-5.11h-1.28v-2.55h-1.28v-2.55h-1.28v-2.55h-1.28v-2.55h-1.28v-1.28h-1.28v-1.28h-1.28v-1.28h-2.55v-1.28h-2.55v-1.28h-3.83v-1.28h-6.38v1.28h1.28v1.28h1.28v26.8h1.28v1.28h-1.28v5.11h1.28v1.28h1.28v-1.28h1.28v1.28h1.28v-2.55h-1.28v-1.28h1.28v-21.7h1.28v3.83h1.28v3.83h1.28v5.11h1.28v3.83h1.28v2.55h1.28v-1.28h1.28v1.28h-1.28v2.55h2.55v1.28h-1.28v1.28h2.55v1.28h1.28v-1.28h1.28v1.28h1.28v-1.28h1.28v1.28h1.28v-1.28h1.28v1.28h1.28v-2.55h-1.28v-1.28h2.55v-2.55h-1.28v-1.28h1.28v1.28h1.28v-2.55h1.28v-2.55h1.28v-2.55h1.28v-2.55h1.28v-2.55h1.28v-3.83h1.28v-2.55h1.28v-2.55h1.28v20.42h1.28v1.28h-1.28v5.11h1.28v1.28h1.28v-1.28h1.28v1.28h1.28v-1.28h1.28v1.28h1.28v-1.28h1.28v1.28h1.28v-1.28h1.28v1.28h1.28v-2.55h-1.28v-1.28h1.28v-31.91h1.28v-1.28h-2.55Zm-47.23,34.46h-1.28v-1.28h1.28v1.28Zm1.28-3.83h-1.28v-1.28h1.28v1.28Zm11.49,0v-1.28h1.28v1.28h-1.28Zm2.55,3.83h-1.28v-1.28h1.28v1.28Zm0-3.83v-1.28h1.28v1.28h-1.28Zm2.55,3.83h-1.28v-1.28h1.28v1.28Zm0-3.83v-1.28h1.28v1.28h-1.28Zm2.55,3.83h-1.28v-1.28h1.28v1.28Zm1.28-3.83h-1.28v-1.28h1.28v1.28Zm16.59,3.83h-1.28v-1.28h1.28v1.28Zm0-3.83v-1.28h1.28v1.28h-1.28Zm2.55,3.83h-1.28v-1.28h1.28v1.28Zm0-3.83v-1.28h1.28v1.28h-1.28Zm2.55,3.83h-1.28v-1.28h1.28v1.28Zm0-3.83v-1.28h1.28v1.28h-1.28Zm2.55,3.83h-1.28v-1.28h1.28v1.28Zm1.28-3.83h-1.28v-1.28h1.28v1.28Z"/>
        <rect class="cls-7" x="433.75" y="170.01" width="1.28" height="1.28"/>
        <rect class="cls-7" x="502.68" y="167.46" width="1.28" height="1.28"/>
        <rect class="cls-7" x="503.95" y="163.63" width="1.28" height="1.28"/>
        <rect class="cls-7" x="432.47" y="166.18" width="1.28" height="1.28"/>
        <rect class="cls-7" x="503.95" y="168.74" width="1.28" height="1.28"/>
        <rect class="cls-7" x="503.95" y="171.29" width="1.28" height="1.28"/>
        <rect class="cls-7" x="503.95" y="166.18" width="1.28" height="1.28"/>
        <rect class="cls-7" x="501.4" y="171.29" width="1.28" height="1.28"/>
        <rect class="cls-7" x="498.85" y="168.74" width="1.28" height="1.28"/>
        <rect class="cls-7" x="498.85" y="166.18" width="1.28" height="1.28"/>
        <rect class="cls-7" x="500.12" y="167.46" width="1.28" height="1.28"/>
        <rect class="cls-7" x="497.57" y="167.46" width="1.28" height="1.28"/>
        <rect class="cls-7" x="502.68" y="170.01" width="1.28" height="1.28"/>
        <rect class="cls-7" x="482.25" y="164.91" width="1.28" height="1.28"/>
        <rect class="cls-7" x="475.87" y="166.18" width="1.28" height="1.28"/>
        <rect class="cls-7" x="478.42" y="166.18" width="1.28" height="1.28"/>
        <rect class="cls-7" x="480.98" y="166.18" width="1.28" height="1.28"/>
        <rect class="cls-7" x="480.98" y="163.63" width="1.28" height="1.28"/>
        <rect class="cls-7" x="501.4" y="168.74" width="1.28" height="1.28"/>
        <rect class="cls-7" x="497.57" y="170.01" width="1.28" height="1.28"/>
        <rect class="cls-7" x="496.29" y="166.18" width="1.28" height="1.28"/>
        <rect class="cls-7" x="500.12" y="170.01" width="1.28" height="1.28"/>
        <rect class="cls-7" x="496.29" y="168.74" width="1.28" height="1.28"/>
        <rect class="cls-7" x="501.4" y="166.18" width="1.28" height="1.28"/>
        <rect class="cls-7" x="500.12" y="164.91" width="1.28" height="1.28"/>
        <rect class="cls-7" x="497.57" y="164.91" width="1.28" height="1.28"/>
        <rect class="cls-7" x="389.08" y="171.29" width="1.28" height="1.28"/>
        <rect class="cls-7" x="391.63" y="166.18" width="1.28" height="1.28"/>
        <rect class="cls-7" x="390.35" y="167.46" width="1.28" height="1.28"/>
        <rect class="cls-7" x="390.35" y="170.01" width="1.28" height="1.28"/>
        <rect class="cls-7" x="392.91" y="170.01" width="1.28" height="1.28"/>
        <rect class="cls-7" x="396.73" y="166.18" width="1.28" height="1.28"/>
        <rect class="cls-7" x="396.73" y="163.63" width="1.28" height="1.28"/>
        <rect class="cls-7" x="395.46" y="170.01" width="1.28" height="1.28"/>
        <rect class="cls-7" x="394.18" y="163.63" width="1.28" height="1.28"/>
        <rect class="cls-7" x="391.63" y="163.63" width="1.28" height="1.28"/>
        <rect class="cls-7" x="396.73" y="168.74" width="1.28" height="1.28"/>
        <rect class="cls-7" x="389.08" y="166.18" width="1.28" height="1.28"/>
        <rect class="cls-7" x="389.08" y="168.74" width="1.28" height="1.28"/>
        <polygon class="cls-7" points="389.08 171.29 389.08 170.01 387.8 170.01 386.52 170.01 386.52 171.29 386.52 172.56 387.8 172.56 387.8 171.29 389.08 171.29"/>
        <rect class="cls-7" x="390.35" y="164.91" width="1.28" height="1.28"/>
        <path class="cls-7" d="m391.63,162.35h1.28v1.28h1.28v-1.28h1.28v1.28h1.28v-1.28h1.28v1.28h1.28v-1.28h1.28v1.28h1.28v-1.28h2.55v-1.28h-1.28v-1.28h1.28v-38.29h1.28v-1.28h1.28v-1.28h-30.63v1.28h-3.83v1.28h-1.28v1.28h-1.28v1.28h-1.28v1.28h-1.28v2.55h-1.28v7.66h1.28v2.55h1.28v1.28h1.28v1.28h2.55v1.28h3.83v1.28h7.66v-1.28h3.83v-1.28h2.55v-1.28h1.28v-1.28h1.28v-3.83h1.28v-2.55h-1.28v-1.28h-1.28v-1.28h-1.28v-1.28h-3.83v3.83h-1.28v2.55h-2.55v1.28h-5.11v-1.28h-1.28v-1.28h-1.28v-3.83h1.28v-2.55h1.28v-1.28h3.83v-1.28h8.93v2.55h1.28v1.28h1.28v1.28h1.28v1.28h1.28v6.38h-1.28v2.55h-1.28v1.28h-1.28v1.28h-1.28v14.04h-1.28v6.38h1.28v1.28h1.28v-1.28Zm10.21-6.38h1.28v1.28h-1.28v-1.28Zm0,3.83v1.28h-1.28v-1.28h1.28Zm-2.55-3.83h1.28v1.28h-1.28v-1.28Zm0,3.83v1.28h-1.28v-1.28h1.28Zm-2.55-3.83h1.28v1.28h-1.28v-1.28Zm0,3.83v1.28h-1.28v-1.28h1.28Zm-2.55-3.83h1.28v1.28h-1.28v-1.28Zm0,3.83v1.28h-1.28v-1.28h1.28Zm-2.55-3.83h1.28v1.28h-1.28v-1.28Zm-1.28,3.83h1.28v1.28h-1.28v-1.28Z"/>
        <rect class="cls-7" x="398.01" y="164.91" width="1.28" height="1.28"/>
        <rect class="cls-7" x="399.29" y="163.63" width="1.28" height="1.28"/>
        <rect class="cls-7" x="395.46" y="167.46" width="1.28" height="1.28"/>
        <rect class="cls-7" x="395.46" y="164.91" width="1.28" height="1.28"/>
        <rect class="cls-7" x="387.8" y="172.56" width="1.28" height="1.28"/>
        <rect class="cls-7" x="392.91" y="172.56" width="1.28" height="1.28"/>
        <rect class="cls-7" x="390.35" y="172.56" width="1.28" height="1.28"/>
        <rect class="cls-7" x="385.25" y="172.56" width="1.28" height="1.28"/>
        <rect class="cls-7" x="394.18" y="168.74" width="1.28" height="1.28"/>
        <rect class="cls-7" x="400.56" y="167.46" width="1.28" height="1.28"/>
        <rect class="cls-7" x="395.46" y="172.56" width="1.28" height="1.28"/>
        <rect class="cls-7" x="382.69" y="172.56" width="1.28" height="1.28"/>
        <rect class="cls-7" x="383.97" y="171.29" width="1.28" height="1.28"/>
        <rect class="cls-7" x="392.91" y="164.91" width="1.28" height="1.28"/>
        <rect class="cls-7" x="392.91" y="167.46" width="1.28" height="1.28"/>
        <rect class="cls-7" x="419.71" y="163.63" width="1.28" height="1.28"/>
        <rect class="cls-7" x="394.18" y="166.18" width="1.28" height="1.28"/>
        <rect class="cls-7" x="387.8" y="167.46" width="1.28" height="1.28"/>
        <rect class="cls-7" x="391.63" y="168.74" width="1.28" height="1.28"/>
        <rect class="cls-7" x="389.08" y="163.63" width="1.28" height="1.28"/>
        <rect class="cls-7" x="401.84" y="163.63" width="1.28" height="1.28"/>
        <rect class="cls-7" x="373.76" y="171.29" width="1.28" height="1.28"/>
        <rect class="cls-7" x="373.76" y="168.74" width="1.28" height="1.28"/>
        <rect class="cls-7" x="375.04" y="170.01" width="1.28" height="1.28"/>
        <rect class="cls-7" x="376.31" y="171.29" width="1.28" height="1.28"/>
        <rect class="cls-7" x="373.76" y="163.63" width="1.28" height="1.28"/>
        <polygon class="cls-7" points="377.59 170.01 377.59 171.29 378.86 171.29 378.86 170.01 378.86 168.74 377.59 168.74 376.31 168.74 376.31 170.01 377.59 170.01"/>
        <rect class="cls-7" x="391.63" y="171.29" width="1.28" height="1.28"/>
        <rect class="cls-7" x="372.48" y="164.91" width="1.28" height="1.28"/>
        <rect class="cls-7" x="372.48" y="167.46" width="1.28" height="1.28"/>
        <rect class="cls-7" x="371.21" y="166.18" width="1.28" height="1.28"/>
        <rect class="cls-7" x="369.93" y="167.46" width="1.28" height="1.28"/>
        <rect class="cls-7" x="375.04" y="167.46" width="1.28" height="1.28"/>
        <rect class="cls-7" x="371.21" y="168.74" width="1.28" height="1.28"/>
        <rect class="cls-7" x="372.48" y="172.56" width="1.28" height="1.28"/>
        <rect class="cls-7" x="372.48" y="170.01" width="1.28" height="1.28"/>
        <rect class="cls-7" x="375.04" y="164.91" width="1.28" height="1.28"/>
        <path class="cls-7" d="m371.21,162.35h1.28v1.28h1.28v-1.28h1.28v1.28h1.28v-1.28h1.28v-3.83h1.28v-2.55h1.28v-3.83h-7.66v1.28h-1.28v1.28h-1.28v2.55h-1.28v5.11h1.28v1.28h1.28v-1.28Zm5.11-6.38h1.28v1.28h-1.28v-1.28Zm0,3.83v1.28h-1.28v-1.28h1.28Zm-2.55-3.83h1.28v1.28h-1.28v-1.28Zm0,3.83v1.28h-1.28v-1.28h1.28Zm-2.55-3.83h1.28v1.28h-1.28v-1.28Zm-1.28,3.83h1.28v1.28h-1.28v-1.28Z"/>
        <rect class="cls-7" x="369.93" y="164.91" width="1.28" height="1.28"/>
        <rect class="cls-7" x="371.21" y="163.63" width="1.28" height="1.28"/>
        <rect class="cls-7" x="399.29" y="166.18" width="1.28" height="1.28"/>
        <rect class="cls-7" x="400.56" y="164.91" width="1.28" height="1.28"/>
        <polygon class="cls-7" points="383.97 127.89 383.97 126.61 382.69 126.61 382.69 127.89 381.42 127.89 380.14 127.89 378.86 127.89 378.86 129.17 378.86 130.44 377.59 130.44 377.59 131.72 378.86 131.72 378.86 133 380.14 133 381.42 133 381.42 131.72 382.69 131.72 382.69 130.44 383.97 130.44 383.97 129.17 383.97 127.89"/>
        <rect class="cls-7" x="371.21" y="171.29" width="1.28" height="1.28"/>
        <rect class="cls-7" x="399.29" y="168.74" width="1.28" height="1.28"/>
        <rect class="cls-7" x="394.18" y="171.29" width="1.28" height="1.28"/>
        <rect class="cls-7" x="396.73" y="171.29" width="1.28" height="1.28"/>
        <rect class="cls-7" x="398.01" y="170.01" width="1.28" height="1.28"/>
        <rect class="cls-7" x="375.04" y="172.56" width="1.28" height="1.28"/>
        <rect class="cls-7" x="380.14" y="172.56" width="1.28" height="1.28"/>
        <rect class="cls-7" x="378.86" y="171.29" width="1.28" height="1.28"/>
        <rect class="cls-7" x="377.59" y="172.56" width="1.28" height="1.28"/>
        <rect class="cls-7" x="368.65" y="166.18" width="1.28" height="1.28"/>
        <rect class="cls-7" x="373.76" y="166.18" width="1.28" height="1.28"/>
        <rect class="cls-7" x="376.31" y="166.18" width="1.28" height="1.28"/>
        <rect class="cls-7" x="368.65" y="163.63" width="1.28" height="1.28"/>
        <rect class="cls-7" x="376.31" y="163.63" width="1.28" height="1.28"/>
        <rect class="cls-7" x="398.01" y="167.46" width="1.28" height="1.28"/>
        <rect class="cls-7" x="438.86" y="164.91" width="1.28" height="1.28"/>
        <rect class="cls-7" x="415.88" y="164.91" width="1.28" height="1.28"/>
        <rect class="cls-7" x="412.05" y="170.01" width="1.28" height="1.28"/>
        <rect class="cls-7" x="410.77" y="171.29" width="1.28" height="1.28"/>
        <rect class="cls-7" x="440.13" y="166.18" width="1.28" height="1.28"/>
        <rect class="cls-7" x="435.03" y="171.29" width="1.28" height="1.28"/>
        <rect class="cls-7" x="437.58" y="166.18" width="1.28" height="1.28"/>
        <rect class="cls-7" x="433.75" y="167.46" width="1.28" height="1.28"/>
        <rect class="cls-7" x="418.43" y="172.56" width="1.28" height="1.28"/>
        <rect class="cls-7" x="433.75" y="172.56" width="1.28" height="1.28"/>
        <rect class="cls-7" x="435.03" y="168.74" width="1.28" height="1.28"/>
        <rect class="cls-7" x="435.03" y="166.18" width="1.28" height="1.28"/>
        <rect class="cls-7" x="417.16" y="166.18" width="1.28" height="1.28"/>
        <rect class="cls-7" x="412.05" y="172.56" width="1.28" height="1.28"/>
        <rect class="cls-7" x="424.82" y="166.18" width="1.28" height="1.28"/>
        <rect class="cls-7" x="433.75" y="164.91" width="1.28" height="1.28"/>
        <rect class="cls-7" x="442.68" y="166.18" width="1.28" height="1.28"/>
        <rect class="cls-7" x="436.3" y="164.91" width="1.28" height="1.28"/>
        <rect class="cls-7" x="410.77" y="167.46" width="1.28" height="1.28"/>
        <rect class="cls-7" x="440.13" y="168.74" width="1.28" height="1.28"/>
        <polygon class="cls-7" points="423.54 153.42 423.54 154.7 424.82 154.7 426.09 154.7 426.09 153.42 426.09 152.14 426.09 150.87 426.09 149.59 424.82 149.59 424.82 150.87 423.54 150.87 423.54 152.14 423.54 153.42"/>
        <rect class="cls-7" x="438.86" y="167.46" width="1.28" height="1.28"/>
        <rect class="cls-7" x="417.16" y="163.63" width="1.28" height="1.28"/>
        <rect class="cls-7" x="441.41" y="164.91" width="1.28" height="1.28"/>
        <rect class="cls-7" x="437.58" y="163.63" width="1.28" height="1.28"/>
        <rect class="cls-7" x="423.54" y="167.46" width="1.28" height="1.28"/>
        <rect class="cls-7" x="441.41" y="167.46" width="1.28" height="1.28"/>
        <rect class="cls-7" x="441.41" y="170.01" width="1.28" height="1.28"/>
        <rect class="cls-7" x="426.09" y="167.46" width="1.28" height="1.28"/>
        <rect class="cls-7" x="440.13" y="163.63" width="1.28" height="1.28"/>
        <polygon class="cls-7" points="422.26 172.56 420.99 172.56 420.99 173.84 419.71 173.84 419.71 175.12 420.99 175.12 422.26 175.12 423.54 175.12 423.54 173.84 422.26 173.84 422.26 172.56"/>
        <rect class="cls-7" x="424.82" y="171.29" width="1.28" height="1.28"/>
        <rect class="cls-7" x="426.09" y="170.01" width="1.28" height="1.28"/>
        <rect class="cls-7" x="423.54" y="172.56" width="1.28" height="1.28"/>
        <rect class="cls-7" x="417.16" y="171.29" width="1.28" height="1.28"/>
        <rect class="cls-7" x="415.88" y="167.46" width="1.28" height="1.28"/>
        <rect class="cls-7" x="418.43" y="164.91" width="1.28" height="1.28"/>
        <rect class="cls-7" x="438.86" y="170.01" width="1.28" height="1.28"/>
        <rect class="cls-7" x="437.58" y="168.74" width="1.28" height="1.28"/>
        <path class="cls-7" d="m433.75,162.35v1.28h1.28v-1.28h1.28v1.28h1.28v-1.28h1.28v1.28h1.28v-1.28h1.28v1.28h1.28v-1.28h1.28v-2.55h-1.28v1.28h-1.28v-1.28h1.28v-6.38h-1.28v-5.11h-1.28v-5.11h-1.28v-5.11h-1.28v-5.11h-1.28v-5.11h-1.28v-1.28h-15.32v1.28h2.55v2.55h-1.28v5.11h-1.28v5.11h-1.28v5.11h-1.28v5.11h-1.28v5.11h1.28v1.28h1.28v-1.28h1.28v-1.28h1.28v-5.11h1.28v-5.11h1.28v-5.11h1.28v-1.28h1.28v5.11h1.28v5.11h1.28v5.11h1.28v2.55h1.28v1.28h-1.28v1.28h-1.28v-1.28h-7.66v1.28h-2.55v1.28h1.28v1.28h-1.28v-1.28h-1.28v1.28h-1.28v2.55h1.28v-1.28h1.28v1.28h1.28v-1.28h3.83v-2.55h1.28v1.28h1.28v-1.28h1.28v1.28h-1.28v1.28h5.11v1.28h1.28v-1.28h1.28Zm-11.49-1.28h-1.28v-1.28h1.28v1.28Zm7.66,0h-1.28v-1.28h1.28v1.28Zm10.21-5.11h1.28v1.28h-1.28v-1.28Zm0,3.83v1.28h-1.28v-1.28h1.28Zm-2.55-3.83h1.28v1.28h-1.28v-1.28Zm0,3.83v1.28h-1.28v-1.28h1.28Zm-2.55-3.83h1.28v1.28h-1.28v-1.28Zm0,3.83v1.28h-1.28v-1.28h1.28Zm-2.55-3.83h1.28v1.28h-1.28v-1.28Zm-1.28,5.11v-1.28h1.28v1.28h-1.28Z"/>
        <rect class="cls-7" x="415.88" y="170.01" width="1.28" height="1.28"/>
        <rect class="cls-7" x="419.71" y="166.18" width="1.28" height="1.28"/>
        <rect class="cls-7" x="422.26" y="168.74" width="1.28" height="1.28"/>
        <rect class="cls-7" x="420.99" y="167.46" width="1.28" height="1.28"/>
        <rect class="cls-7" x="432.47" y="163.63" width="1.28" height="1.28"/>
        <rect class="cls-7" x="435.03" y="163.63" width="1.28" height="1.28"/>
        <rect class="cls-7" x="423.54" y="170.01" width="1.28" height="1.28"/>
        <rect class="cls-7" x="424.82" y="168.74" width="1.28" height="1.28"/>
        <rect class="cls-7" x="437.58" y="171.29" width="1.28" height="1.28"/>
        <rect class="cls-7" x="440.13" y="171.29" width="1.28" height="1.28"/>
        <rect class="cls-7" x="426.09" y="172.56" width="1.28" height="1.28"/>
        <rect class="cls-7" x="414.6" y="166.18" width="1.28" height="1.28"/>
        <rect class="cls-7" x="418.43" y="170.01" width="1.28" height="1.28"/>
        <rect class="cls-7" x="414.6" y="168.74" width="1.28" height="1.28"/>
        <rect class="cls-7" x="417.16" y="168.74" width="1.28" height="1.28"/>
        <rect class="cls-7" x="427.37" y="168.74" width="1.28" height="1.28"/>
        <rect class="cls-7" x="442.68" y="168.74" width="1.28" height="1.28"/>
        <rect class="cls-7" x="427.37" y="171.29" width="1.28" height="1.28"/>
        <rect class="cls-7" x="414.6" y="163.63" width="1.28" height="1.28"/>
        <rect class="cls-7" x="418.43" y="167.46" width="1.28" height="1.28"/>
        <rect class="cls-7" x="443.96" y="170.01" width="1.28" height="1.28"/>
        <rect class="cls-7" x="442.68" y="163.63" width="1.28" height="1.28"/>
        <polygon class="cls-7" points="415.88 155.97 414.6 155.97 414.6 157.25 414.6 158.52 414.6 159.8 415.88 159.8 415.88 158.52 417.16 158.52 417.16 157.25 415.88 157.25 415.88 155.97"/>
        <rect class="cls-7" x="442.68" y="171.29" width="1.28" height="1.28"/>
        <rect class="cls-7" x="427.37" y="166.18" width="1.28" height="1.28"/>
        <rect class="cls-7" x="443.96" y="172.56" width="1.28" height="1.28"/>
        <rect class="cls-7" x="445.24" y="171.29" width="1.28" height="1.28"/>
        <rect class="cls-7" x="436.3" y="167.46" width="1.28" height="1.28"/>
        <rect class="cls-7" x="422.26" y="171.29" width="1.28" height="1.28"/>
        <rect class="cls-7" x="441.41" y="172.56" width="1.28" height="1.28"/>
        <rect class="cls-7" x="436.3" y="172.56" width="1.28" height="1.28"/>
        <rect class="cls-7" x="420.99" y="170.01" width="1.28" height="1.28"/>
        <rect class="cls-7" x="419.71" y="171.29" width="1.28" height="1.28"/>
        <rect class="cls-7" x="436.3" y="170.01" width="1.28" height="1.28"/>
        <rect class="cls-7" x="443.96" y="164.91" width="1.28" height="1.28"/>
        <rect class="cls-7" x="419.71" y="168.74" width="1.28" height="1.28"/>
        <rect class="cls-7" x="438.86" y="172.56" width="1.28" height="1.28"/>
        <rect class="cls-7" x="443.96" y="167.46" width="1.28" height="1.28"/>
        <path class="cls-4" d="m509.06,125.34v-1.28h-19.15v1.28h-1.28v5.11h-1.28v2.55h-1.28v2.55h-1.28v2.55h-1.28v2.55h-1.28v2.55h-1.28v2.55h-1.28v-2.55h-1.28v-2.55h-1.28v-2.55h-1.28v-2.55h-1.28v-2.55h-1.28v-1.28h-1.28v-1.28h-1.28v-1.28h-1.28v-1.28h-2.55v-1.28h-2.55v-1.28h-3.83v-1.28h-8.93v1.28h-1.28v3.83h1.28v1.28h1.28v43.4h-1.28v1.28h-1.28v-1.28h-1.28v-5.11h-1.28v-5.11h-1.28v-5.11h-1.28v-6.38h-1.28v-5.11h-1.28v-5.11h-1.28v-5.11h-1.28v-5.11h-1.28v-5.11h-1.28v-1.28h-1.28v-1.28h-17.87v1.28h-1.28v3.83h1.28v5.11h-1.28v5.11h-1.28v5.11h-1.28v5.11h-1.28v5.11h-1.28v10.21h-2.55v1.28h-1.28v7.66h-1.28v1.28h-1.28v3.83h1.28v1.28h11.49v-1.28h1.28v-1.28h5.11v-1.28h3.83v-1.28h1.28v-1.28h1.28v5.11h1.28v1.28h17.87v-1.28h1.28v1.28h12.76v-1.28h1.28v-3.83h-1.28v-1.28h-1.28v-17.87h1.28v2.55h1.28v2.55h1.28v2.55h1.28v1.28h1.28v1.28h1.28v1.28h1.28v1.28h1.28v1.28h2.55v1.28h10.21v-1.28h1.28v-1.28h1.28v-3.83h-1.28v-1.28h-2.55v-1.28h-1.28v-1.28h1.28v-2.55h1.28v-2.55h1.28v-2.55h1.28v-2.55h1.28v-2.55h1.28v25.53h-1.28v1.28h-1.28v3.83h1.28v1.28h19.15v-1.28h1.28v-3.83h-1.28v-45.95h1.28v-3.83h-1.28Zm-1.28,2.55h-1.28v31.91h-1.28v1.28h1.28v2.55h-1.28v1.28h1.28v1.28h-1.28v1.28h1.28v1.28h-1.28v1.28h1.28v1.28h-1.28v1.28h1.28v1.28h-1.28v-1.28h-1.28v1.28h-1.28v-1.28h-1.28v1.28h-1.28v-1.28h-1.28v1.28h-1.28v-1.28h-1.28v1.28h-1.28v-1.28h-1.28v-1.28h1.28v-1.28h-1.28v-1.28h1.28v-1.28h-1.28v-1.28h1.28v-1.28h-1.28v-1.28h1.28v-1.28h-1.28v-5.11h1.28v-1.28h-1.28v-20.42h-1.28v2.55h-1.28v2.55h-1.28v3.83h-1.28v2.55h-1.28v2.55h-1.28v2.55h-1.28v2.55h-1.28v2.55h-1.28v2.55h-2.55v1.28h1.28v2.55h1.28v1.28h1.28v1.28h1.28v1.28h-1.28v1.28h-1.28v-1.28h-1.28v1.28h-1.28v-1.28h-1.28v1.28h-1.28v-1.28h-1.28v-1.28h-1.28v-1.28h-1.28v-1.28h-1.28v-1.28h-2.55v-1.28h1.28v-1.28h-2.55v-2.55h-1.28v-2.55h-1.28v-3.83h-1.28v-5.11h-1.28v-3.83h-1.28v-3.83h-1.28v21.7h-1.28v1.28h1.28v2.55h-1.28v1.28h1.28v1.28h-1.28v1.28h1.28v1.28h-1.28v1.28h1.28v1.28h-1.28v1.28h1.28v1.28h-1.28v-1.28h-1.28v1.28h-1.28v-1.28h-1.28v-1.28h1.28v-1.28h-1.28v-1.28h1.28v-1.28h-1.28v-1.28h1.28v-1.28h-1.28v-1.28h1.28v-1.28h-1.28v-5.11h1.28v-1.28h-1.28v-26.8h-1.28v-1.28h-1.28v-1.28h6.38v1.28h3.83v1.28h2.55v1.28h2.55v1.28h1.28v1.28h1.28v1.28h1.28v2.55h1.28v2.55h1.28v2.55h1.28v2.55h1.28v5.11h1.28v5.11h1.28v-2.55h1.28v-2.55h1.28v-2.55h1.28v-2.55h1.28v-2.55h1.28v-2.55h1.28v-2.55h1.28v-2.55h1.28v-2.55h1.28v-2.55h1.28v-1.28h-1.28v-1.28h16.59v1.28Zm-74.03,44.67h1.28v-1.28h-1.28v-1.28h1.28v-1.28h-1.28v-1.28h-1.28v-1.28h1.28v-1.28h-1.28v-1.28h-1.28v-1.28h-5.11v-1.28h-1.28v-1.28h-1.28v2.55h-3.83v1.28h1.28v1.28h-1.28v1.28h1.28v1.28h1.28v1.28h1.28v-1.28h1.28v-1.28h1.28v1.28h1.28v-1.28h1.28v1.28h-1.28v1.28h1.28v1.28h-1.28v1.28h1.28v1.28h-1.28v1.28h-1.28v-1.28h-1.28v1.28h-1.28v1.28h-3.83v-1.28h-1.28v-1.28h-1.28v-1.28h-1.28v-1.28h-1.28v-1.28h1.28v-1.28h-1.28v-1.28h1.28v-1.28h-1.28v-1.28h1.28v-2.55h1.28v-1.28h1.28v-1.28h2.55v-1.28h7.66v1.28h1.28v-1.28h1.28v-1.28h-1.28v-2.55h-1.28v-5.11h-1.28v-5.11h-1.28v-5.11h-1.28v1.28h-1.28v5.11h-1.28v5.11h-1.28v5.11h-1.28v1.28h-1.28v1.28h-1.28v1.28h-1.28v1.28h-1.28v-3.83h1.28v-5.11h1.28v-5.11h1.28v-5.11h1.28v-5.11h1.28v-5.11h1.28v-2.55h-2.55v-1.28h15.32v1.28h1.28v5.11h1.28v5.11h1.28v5.11h1.28v5.11h1.28v5.11h1.28v6.38h1.28v2.55h-1.28v1.28h1.28v1.28h1.28v1.28h-1.28v1.28h1.28v1.28h-1.28v1.28h1.28v1.28h1.28v1.28h-1.28v1.28h-1.28v-1.28h-1.28v1.28h-1.28v-1.28h-1.28v1.28h-1.28v-1.28h-1.28v1.28h-1.28v-1.28h-1.28v1.28h-1.28v-1.28Zm-22.98-1.28h1.28v-1.28h1.28v1.28h-1.28v1.28h1.28v1.28h-1.28v-1.28h-1.28v-1.28Zm0-3.83h1.28v1.28h-1.28v-1.28Zm14.04-16.59v-1.28h1.28v5.11h-2.55v-3.83h1.28Z"/>
        <rect class="cls-4" x="371.21" y="155.97" width="1.28" height="1.28"/>
        <rect class="cls-4" x="373.76" y="155.97" width="1.28" height="1.28"/>
        <rect class="cls-4" x="376.31" y="155.97" width="1.28" height="1.28"/>
        <rect class="cls-4" x="391.63" y="155.97" width="1.28" height="1.28"/>
        <rect class="cls-4" x="394.18" y="155.97" width="1.28" height="1.28"/>
        <rect class="cls-4" x="396.73" y="155.97" width="1.28" height="1.28"/>
        <rect class="cls-4" x="399.29" y="155.97" width="1.28" height="1.28"/>
        <rect class="cls-4" x="401.84" y="155.97" width="1.28" height="1.28"/>
        <rect class="cls-4" x="415.88" y="155.97" width="1.28" height="1.28"/>
        <rect class="cls-4" x="432.47" y="155.97" width="1.28" height="1.28"/>
        <rect class="cls-4" x="435.03" y="155.97" width="1.28" height="1.28"/>
        <rect class="cls-4" x="437.58" y="155.97" width="1.28" height="1.28"/>
        <rect class="cls-4" x="440.13" y="155.97" width="1.28" height="1.28"/>
        <rect class="cls-4" x="458" y="155.97" width="1.28" height="1.28"/>
        <rect class="cls-4" x="468.21" y="155.97" width="1.28" height="1.28"/>
        <rect class="cls-4" x="470.77" y="155.97" width="1.28" height="1.28"/>
        <rect class="cls-4" x="473.32" y="155.97" width="1.28" height="1.28"/>
        <rect class="cls-4" x="475.87" y="155.97" width="1.28" height="1.28"/>
        <rect class="cls-4" x="478.42" y="155.97" width="1.28" height="1.28"/>
        <rect class="cls-4" x="480.98" y="155.97" width="1.28" height="1.28"/>
        <rect class="cls-4" x="496.29" y="155.97" width="1.28" height="1.28"/>
        <rect class="cls-4" x="498.85" y="155.97" width="1.28" height="1.28"/>
        <rect class="cls-4" x="501.4" y="155.97" width="1.28" height="1.28"/>
        <rect class="cls-4" x="503.95" y="155.97" width="1.28" height="1.28"/>
        <rect class="cls-4" x="369.93" y="159.8" width="1.28" height="1.28"/>
        <rect class="cls-4" x="372.48" y="159.8" width="1.28" height="1.28"/>
        <rect class="cls-4" x="375.04" y="159.8" width="1.28" height="1.28"/>
        <rect class="cls-4" x="390.35" y="159.8" width="1.28" height="1.28"/>
        <rect class="cls-4" x="392.91" y="159.8" width="1.28" height="1.28"/>
        <rect class="cls-4" x="395.46" y="159.8" width="1.28" height="1.28"/>
        <rect class="cls-4" x="398.01" y="159.8" width="1.28" height="1.28"/>
        <rect class="cls-4" x="400.56" y="159.8" width="1.28" height="1.28"/>
        <rect class="cls-4" x="418.43" y="159.8" width="1.28" height="1.28"/>
        <rect class="cls-4" x="420.99" y="159.8" width="1.28" height="1.28"/>
        <rect class="cls-4" x="426.09" y="159.8" width="1.28" height="1.28"/>
        <rect class="cls-4" x="428.64" y="159.8" width="1.28" height="1.28"/>
        <rect class="cls-4" x="431.2" y="159.8" width="1.28" height="1.28"/>
        <rect class="cls-4" x="433.75" y="159.8" width="1.28" height="1.28"/>
        <rect class="cls-4" x="436.3" y="159.8" width="1.28" height="1.28"/>
        <rect class="cls-4" x="438.86" y="159.8" width="1.28" height="1.28"/>
        <rect class="cls-4" x="441.41" y="159.8" width="1.28" height="1.28"/>
        <rect class="cls-4" x="456.73" y="159.8" width="1.28" height="1.28"/>
        <rect class="cls-4" x="472.04" y="159.8" width="1.28" height="1.28"/>
        <rect class="cls-4" x="474.59" y="159.8" width="1.28" height="1.28"/>
        <rect class="cls-4" x="477.15" y="159.8" width="1.28" height="1.28"/>
        <rect class="cls-4" x="495.02" y="159.8" width="1.28" height="1.28"/>
        <rect class="cls-4" x="497.57" y="159.8" width="1.28" height="1.28"/>
        <rect class="cls-4" x="500.12" y="159.8" width="1.28" height="1.28"/>
        <rect class="cls-4" x="502.68" y="159.8" width="1.28" height="1.28"/>
        <rect class="cls-4" x="371.21" y="162.35" width="1.28" height="1.28"/>
        <rect class="cls-4" x="373.76" y="162.35" width="1.28" height="1.28"/>
        <rect class="cls-4" x="391.63" y="162.35" width="1.28" height="1.28"/>
        <rect class="cls-4" x="394.18" y="162.35" width="1.28" height="1.28"/>
        <rect class="cls-4" x="396.73" y="162.35" width="1.28" height="1.28"/>
        <rect class="cls-4" x="399.29" y="162.35" width="1.28" height="1.28"/>
        <rect class="cls-4" x="417.16" y="162.35" width="1.28" height="1.28"/>
        <rect class="cls-4" x="432.47" y="162.35" width="1.28" height="1.28"/>
        <rect class="cls-4" x="435.03" y="162.35" width="1.28" height="1.28"/>
        <rect class="cls-4" x="437.58" y="162.35" width="1.28" height="1.28"/>
        <rect class="cls-4" x="440.13" y="162.35" width="1.28" height="1.28"/>
        <rect class="cls-4" x="458" y="162.35" width="1.28" height="1.28"/>
        <rect class="cls-4" x="473.32" y="162.35" width="1.28" height="1.28"/>
        <rect class="cls-4" x="475.87" y="162.35" width="1.28" height="1.28"/>
        <rect class="cls-4" x="478.42" y="162.35" width="1.28" height="1.28"/>
        <rect class="cls-4" x="496.29" y="162.35" width="1.28" height="1.28"/>
        <rect class="cls-4" x="498.85" y="162.35" width="1.28" height="1.28"/>
        <rect class="cls-4" x="501.4" y="162.35" width="1.28" height="1.28"/>
        <rect class="cls-4" x="503.95" y="162.35" width="1.28" height="1.28"/>
        <rect class="cls-4" x="369.93" y="163.63" width="1.28" height="1.28"/>
        <rect class="cls-4" x="372.48" y="163.63" width="1.28" height="1.28"/>
        <rect class="cls-4" x="375.04" y="163.63" width="1.28" height="1.28"/>
        <rect class="cls-4" x="390.35" y="163.63" width="1.28" height="1.28"/>
        <rect class="cls-4" x="392.91" y="163.63" width="1.28" height="1.28"/>
        <rect class="cls-4" x="395.46" y="163.63" width="1.28" height="1.28"/>
        <rect class="cls-4" x="398.01" y="163.63" width="1.28" height="1.28"/>
        <rect class="cls-4" x="400.56" y="163.63" width="1.28" height="1.28"/>
        <rect class="cls-4" x="415.88" y="163.63" width="1.28" height="1.28"/>
        <rect class="cls-4" x="418.43" y="163.63" width="1.28" height="1.28"/>
        <rect class="cls-4" x="433.75" y="163.63" width="1.28" height="1.28"/>
        <rect class="cls-4" x="436.3" y="163.63" width="1.28" height="1.28"/>
        <rect class="cls-4" x="438.86" y="163.63" width="1.28" height="1.28"/>
        <rect class="cls-4" x="441.41" y="163.63" width="1.28" height="1.28"/>
        <rect class="cls-4" x="456.73" y="163.63" width="1.28" height="1.28"/>
        <rect class="cls-4" x="474.59" y="163.63" width="1.28" height="1.28"/>
        <rect class="cls-4" x="477.15" y="163.63" width="1.28" height="1.28"/>
        <rect class="cls-4" x="479.7" y="163.63" width="1.28" height="1.28"/>
        <rect class="cls-4" x="495.02" y="163.63" width="1.28" height="1.28"/>
        <rect class="cls-4" x="497.57" y="163.63" width="1.28" height="1.28"/>
        <rect class="cls-4" x="500.12" y="163.63" width="1.28" height="1.28"/>
        <rect class="cls-4" x="502.68" y="163.63" width="1.28" height="1.28"/>
        <rect class="cls-4" x="371.21" y="164.91" width="1.28" height="1.28"/>
        <rect class="cls-4" x="373.76" y="164.91" width="1.28" height="1.28"/>
        <rect class="cls-4" x="391.63" y="164.91" width="1.28" height="1.28"/>
        <rect class="cls-4" x="394.18" y="164.91" width="1.28" height="1.28"/>
        <rect class="cls-4" x="396.73" y="164.91" width="1.28" height="1.28"/>
        <rect class="cls-4" x="399.29" y="164.91" width="1.28" height="1.28"/>
        <rect class="cls-4" x="417.16" y="164.91" width="1.28" height="1.28"/>
        <rect class="cls-4" x="435.03" y="164.91" width="1.28" height="1.28"/>
        <rect class="cls-4" x="437.58" y="164.91" width="1.28" height="1.28"/>
        <rect class="cls-4" x="440.13" y="164.91" width="1.28" height="1.28"/>
        <rect class="cls-4" x="442.68" y="164.91" width="1.28" height="1.28"/>
        <rect class="cls-4" x="458" y="164.91" width="1.28" height="1.28"/>
        <rect class="cls-4" x="475.87" y="164.91" width="1.28" height="1.28"/>
        <rect class="cls-4" x="478.42" y="164.91" width="1.28" height="1.28"/>
        <rect class="cls-4" x="480.98" y="164.91" width="1.28" height="1.28"/>
        <rect class="cls-4" x="496.29" y="164.91" width="1.28" height="1.28"/>
        <rect class="cls-4" x="498.85" y="164.91" width="1.28" height="1.28"/>
        <rect class="cls-4" x="501.4" y="164.91" width="1.28" height="1.28"/>
        <rect class="cls-4" x="503.95" y="164.91" width="1.28" height="1.28"/>
        <rect class="cls-4" x="369.93" y="166.18" width="1.28" height="1.28"/>
        <rect class="cls-4" x="372.48" y="166.18" width="1.28" height="1.28"/>
        <rect class="cls-4" x="375.04" y="166.18" width="1.28" height="1.28"/>
        <rect class="cls-4" x="390.35" y="166.18" width="1.28" height="1.28"/>
        <rect class="cls-4" x="392.91" y="166.18" width="1.28" height="1.28"/>
        <rect class="cls-4" x="395.46" y="166.18" width="1.28" height="1.28"/>
        <rect class="cls-4" x="398.01" y="166.18" width="1.28" height="1.28"/>
        <path class="cls-4" d="m405.67,166.18v-2.55h1.28v-40.84h1.28v-1.28h1.28v-3.83h-1.28v-1.28h-33.19v1.28h-3.83v1.28h-1.28v1.28h-1.28v1.28h-1.28v1.28h-1.28v1.28h-1.28v2.55h-1.28v10.21h1.28v2.55h1.28v1.28h1.28v1.28h1.28v1.28h2.55v1.28h3.83v1.28h10.21v-1.28h2.55v10.21h-1.28v10.21h-1.28v3.83h-2.55v1.28h-1.28v-2.55h-1.28v-7.66h1.28v-2.55h1.28v-6.38h-1.28v-1.28h-10.21v1.28h-1.28v1.28h-1.28v1.28h-1.28v2.55h-1.28v12.76h1.28v2.55h1.28v2.55h1.28v1.28h1.28v1.28h1.28v1.28h2.55v1.28h2.55v1.28h14.04v-1.28h3.83v-1.28h2.55v-1.28h1.28v-1.28h1.28v-1.28h1.28v-1.28h1.28v-2.55h1.28v-2.55h1.28v-1.28Zm-3.83-1.28v1.28h-1.28v1.28h1.28v1.28h-1.28v1.28h-1.28v1.28h-1.28v1.28h-1.28v1.28h-1.28v-1.28h-1.28v1.28h-1.28v-1.28h-1.28v1.28h-1.28v-1.28h-1.28v1.28h-1.28v-1.28h-1.28v1.28h-1.28v-1.28h-1.28v1.28h-1.28v-1.28h1.28v-1.28h1.28v1.28h1.28v-2.55h2.55v-1.28h-1.28v-1.28h1.28v-1.28h1.28v-1.28h-1.28v-1.28h1.28v-1.28h-1.28v-6.38h1.28v-14.04h1.28v-1.28h1.28v-1.28h1.28v-2.55h1.28v-6.38h-1.28v-1.28h-1.28v-1.28h-1.28v-1.28h-1.28v-2.55h-8.93v1.28h-3.83v1.28h-1.28v2.55h-1.28v3.83h1.28v1.28h1.28v1.28h5.11v-1.28h2.55v-2.55h1.28v-3.83h3.83v1.28h1.28v1.28h1.28v1.28h1.28v2.55h-1.28v3.83h-1.28v1.28h-1.28v1.28h-2.55v1.28h-3.83v1.28h-7.66v-1.28h-3.83v-1.28h-2.55v-1.28h-1.28v-1.28h-1.28v-2.55h-1.28v-7.66h1.28v-2.55h1.28v-1.28h1.28v-1.28h1.28v-1.28h1.28v-1.28h3.83v-1.28h30.63v1.28h-1.28v1.28h-1.28v38.29h-1.28v1.28h1.28v1.28h-2.55v1.28h1.28v1.28h-1.28Zm-30.63,7.66v-1.28h1.28v-1.28h-1.28v-1.28h-1.28v-1.28h-1.28v-1.28h1.28v-1.28h-1.28v-1.28h1.28v-1.28h-1.28v-5.11h1.28v-2.55h1.28v-1.28h1.28v-1.28h7.66v3.83h-1.28v2.55h-1.28v3.83h-1.28v1.28h1.28v1.28h-1.28v1.28h1.28v1.28h-1.28v1.28h2.55v2.55h1.28v1.28h1.28v1.28h-1.28v-1.28h-1.28v1.28h-1.28v-1.28h-1.28v1.28h-1.28v-1.28h-1.28v1.28h-1.28v-1.28h-1.28Zm11.49-42.12v1.28h-1.28v1.28h-2.55v-1.28h-1.28v-1.28h1.28v-2.55h3.83v-1.28h1.28v3.83h-1.28Z"/>
        <rect class="cls-4" x="415.88" y="166.18" width="1.28" height="1.28"/>
        <rect class="cls-4" x="418.43" y="166.18" width="1.28" height="1.28"/>
        <rect class="cls-4" x="433.75" y="166.18" width="1.28" height="1.28"/>
        <rect class="cls-4" x="436.3" y="166.18" width="1.28" height="1.28"/>
        <rect class="cls-4" x="438.86" y="166.18" width="1.28" height="1.28"/>
        <rect class="cls-4" x="441.41" y="166.18" width="1.28" height="1.28"/>
        <rect class="cls-4" x="456.73" y="166.18" width="1.28" height="1.28"/>
        <rect class="cls-4" x="477.15" y="166.18" width="1.28" height="1.28"/>
        <rect class="cls-4" x="479.7" y="166.18" width="1.28" height="1.28"/>
        <rect class="cls-4" x="482.25" y="166.18" width="1.28" height="1.28"/>
        <rect class="cls-4" x="495.02" y="166.18" width="1.28" height="1.28"/>
        <rect class="cls-4" x="497.57" y="166.18" width="1.28" height="1.28"/>
        <rect class="cls-4" x="500.12" y="166.18" width="1.28" height="1.28"/>
        <rect class="cls-4" x="502.68" y="166.18" width="1.28" height="1.28"/>
        <rect class="cls-4" x="371.21" y="167.46" width="1.28" height="1.28"/>
        <rect class="cls-4" x="373.76" y="167.46" width="1.28" height="1.28"/>
        <rect class="cls-4" x="389.08" y="167.46" width="1.28" height="1.28"/>
        <rect class="cls-4" x="391.63" y="167.46" width="1.28" height="1.28"/>
        <rect class="cls-4" x="394.18" y="167.46" width="1.28" height="1.28"/>
        <rect class="cls-4" x="396.73" y="167.46" width="1.28" height="1.28"/>
        <rect class="cls-4" x="399.29" y="167.46" width="1.28" height="1.28"/>
        <rect class="cls-4" x="417.16" y="167.46" width="1.28" height="1.28"/>
        <rect class="cls-4" x="419.71" y="167.46" width="1.28" height="1.28"/>
        <rect class="cls-4" x="424.82" y="167.46" width="1.28" height="1.28"/>
        <rect class="cls-4" x="435.03" y="167.46" width="1.28" height="1.28"/>
        <rect class="cls-4" x="437.58" y="167.46" width="1.28" height="1.28"/>
        <rect class="cls-4" x="440.13" y="167.46" width="1.28" height="1.28"/>
        <rect class="cls-4" x="442.68" y="167.46" width="1.28" height="1.28"/>
        <rect class="cls-4" x="458" y="167.46" width="1.28" height="1.28"/>
        <rect class="cls-4" x="496.29" y="167.46" width="1.28" height="1.28"/>
        <rect class="cls-4" x="498.85" y="167.46" width="1.28" height="1.28"/>
        <rect class="cls-4" x="501.4" y="167.46" width="1.28" height="1.28"/>
        <rect class="cls-4" x="503.95" y="167.46" width="1.28" height="1.28"/>
        <rect class="cls-4" x="372.48" y="168.74" width="1.28" height="1.28"/>
        <rect class="cls-4" x="375.04" y="168.74" width="1.28" height="1.28"/>
        <rect class="cls-4" x="390.35" y="168.74" width="1.28" height="1.28"/>
        <rect class="cls-4" x="392.91" y="168.74" width="1.28" height="1.28"/>
        <rect class="cls-4" x="395.46" y="168.74" width="1.28" height="1.28"/>
        <rect class="cls-4" x="398.01" y="168.74" width="1.28" height="1.28"/>
        <rect class="cls-4" x="415.88" y="168.74" width="1.28" height="1.28"/>
        <rect class="cls-4" x="418.43" y="168.74" width="1.28" height="1.28"/>
        <rect class="cls-4" x="420.99" y="168.74" width="1.28" height="1.28"/>
        <rect class="cls-4" x="423.54" y="168.74" width="1.28" height="1.28"/>
        <rect class="cls-4" x="426.09" y="168.74" width="1.28" height="1.28"/>
        <rect class="cls-4" x="436.3" y="168.74" width="1.28" height="1.28"/>
        <rect class="cls-4" x="438.86" y="168.74" width="1.28" height="1.28"/>
        <rect class="cls-4" x="441.41" y="168.74" width="1.28" height="1.28"/>
        <rect class="cls-4" x="456.73" y="168.74" width="1.28" height="1.28"/>
        <rect class="cls-4" x="495.02" y="168.74" width="1.28" height="1.28"/>
        <rect class="cls-4" x="497.57" y="168.74" width="1.28" height="1.28"/>
        <rect class="cls-4" x="500.12" y="168.74" width="1.28" height="1.28"/>
        <rect class="cls-4" x="502.68" y="168.74" width="1.28" height="1.28"/>
        <rect class="cls-4" x="373.76" y="170.01" width="1.28" height="1.28"/>
        <rect class="cls-4" x="376.31" y="170.01" width="1.28" height="1.28"/>
        <rect class="cls-4" x="389.08" y="170.01" width="1.28" height="1.28"/>
        <rect class="cls-4" x="391.63" y="170.01" width="1.28" height="1.28"/>
        <rect class="cls-4" x="394.18" y="170.01" width="1.28" height="1.28"/>
        <rect class="cls-4" x="396.73" y="170.01" width="1.28" height="1.28"/>
        <rect class="cls-4" x="417.16" y="170.01" width="1.28" height="1.28"/>
        <rect class="cls-4" x="419.71" y="170.01" width="1.28" height="1.28"/>
        <rect class="cls-4" x="422.26" y="170.01" width="1.28" height="1.28"/>
        <rect class="cls-4" x="424.82" y="170.01" width="1.28" height="1.28"/>
        <rect class="cls-4" x="435.03" y="170.01" width="1.28" height="1.28"/>
        <rect class="cls-4" x="437.58" y="170.01" width="1.28" height="1.28"/>
        <rect class="cls-4" x="440.13" y="170.01" width="1.28" height="1.28"/>
        <rect class="cls-4" x="442.68" y="170.01" width="1.28" height="1.28"/>
        <rect class="cls-4" x="458" y="170.01" width="1.28" height="1.28"/>
        <rect class="cls-4" x="496.29" y="170.01" width="1.28" height="1.28"/>
        <rect class="cls-4" x="498.85" y="170.01" width="1.28" height="1.28"/>
        <rect class="cls-4" x="501.4" y="170.01" width="1.28" height="1.28"/>
        <rect class="cls-4" x="503.95" y="170.01" width="1.28" height="1.28"/>
        <rect class="cls-4" x="372.48" y="171.29" width="1.28" height="1.28"/>
        <rect class="cls-4" x="375.04" y="171.29" width="1.28" height="1.28"/>
        <rect class="cls-4" x="377.59" y="171.29" width="1.28" height="1.28"/>
        <rect class="cls-4" x="387.8" y="171.29" width="1.28" height="1.28"/>
        <rect class="cls-4" x="390.35" y="171.29" width="1.28" height="1.28"/>
        <rect class="cls-4" x="392.91" y="171.29" width="1.28" height="1.28"/>
        <rect class="cls-4" x="395.46" y="171.29" width="1.28" height="1.28"/>
        <rect class="cls-4" x="418.43" y="171.29" width="1.28" height="1.28"/>
        <rect class="cls-4" x="420.99" y="171.29" width="1.28" height="1.28"/>
        <rect class="cls-4" x="423.54" y="171.29" width="1.28" height="1.28"/>
        <rect class="cls-4" x="426.09" y="171.29" width="1.28" height="1.28"/>
        <rect class="cls-4" x="436.3" y="171.29" width="1.28" height="1.28"/>
        <rect class="cls-4" x="438.86" y="171.29" width="1.28" height="1.28"/>
        <rect class="cls-4" x="441.41" y="171.29" width="1.28" height="1.28"/>
        <rect class="cls-4" x="443.96" y="171.29" width="1.28" height="1.28"/>
        <rect class="cls-4" x="456.73" y="171.29" width="1.28" height="1.28"/>
        <rect class="cls-4" x="495.02" y="171.29" width="1.28" height="1.28"/>
        <rect class="cls-4" x="497.57" y="171.29" width="1.28" height="1.28"/>
        <rect class="cls-4" x="500.12" y="171.29" width="1.28" height="1.28"/>
        <rect class="cls-4" x="502.68" y="171.29" width="1.28" height="1.28"/>
        <rect class="cls-4" x="419.71" y="172.56" width="1.28" height="1.28"/>
        <rect class="cls-4" x="422.26" y="172.56" width="1.28" height="1.28"/>
      </g>
    </g>
  </g>
</svg>